<svg width="156" height="509" viewBox="0 0 156 509" fill="none" xmlns="http://www.w3.org/2000/svg">
<path fill-rule="evenodd" clip-rule="evenodd" d="M85.6422 -124.351L43.0564 -102.527L42.9869 -102.525L42.9881 -102.492L42.9222 -102.458L42.9962 -102.277L43.437 -90.4854L1.33766 -69.581L1.63314 -68.9989L1.62756 -68.9966L1.32751 -69.591L0.77009 -69.3099L0.770087 1.93383L-0.000344329 1.56374L0.770087 3.45185L0.770087 3.79275L0.944419 3.8791L0.982764 3.97305L1.0124 3.96137L1.0138 3.96465L0.992911 3.97305L58.2399 144.526L43.0428 152.315L42.9768 152.317L42.9779 152.348L42.9222 152.377L42.9847 152.53L43.4267 164.355L1.33765 185.254L1.63655 185.843L1.63095 185.845L1.3275 185.244L0.770079 185.525L0.770076 256.78L-0.000355469 256.41L0.770076 258.298L0.770076 258.628L0.938884 258.711L0.982753 258.819L1.01846 258.805L1.01986 258.808L0.9929 258.819L58.2399 399.372L43.7473 406.799L43.7431 406.791L43.0514 407.146L42.9661 407.149L42.9676 407.189L42.9222 407.213L42.9731 407.337L43.4164 419.195L1.33763 440.09L1.63977 440.685L1.63416 440.687L1.32749 440.079L0.770068 440.361L0.770065 511.615L-0.000366608 511.245L0.770065 513.133L0.770065 513.463L0.939117 513.547L0.982742 513.654L1.02028 513.639L1.02168 513.642L0.992889 513.654L69.4255 681.67L69.4255 682.246L69.993 682.527L112.409 703.348L112.495 703.175L114.182 704L113.247 701.679L113.311 701.551L113.154 701.474L87.6788 638.508L87.6788 602.336L112.618 589.952L114.241 589.892L113.76 577.026L155.169 556.058L154.925 555.587L154.932 555.585L155.179 556.058L156 555.647L155.878 555.345L155.878 483.317L155.807 483.136L99.0083 341.894L112.653 335.119L114.252 335.06L113.771 322.185L155.169 301.222L154.926 300.751L154.932 300.75L155.179 301.222L156 300.811L155.878 300.509L155.878 228.481L155.807 228.301L99.0084 87.059L112.644 80.288L114.263 80.2287L113.781 67.3452L155.169 46.3874L154.925 45.9157L154.937 45.9135L155.179 46.3774L156 45.9658L155.878 45.6644L155.878 -26.354L155.807 -26.5347L87.6586 -196L85.7026 -195.629L85.6422 -124.351ZM69.993 682.527L70.0711 682.369L70.0721 682.37L69.993 682.527ZM111.198 588.407L87.6788 600.086L87.6788 568.356L87.1214 568.074L87.1173 568.082L52.1638 550.726L45.0199 533.069L44.3769 533.322L44.3832 533.31L45.0199 533.059L44.878 532.698L44.5233 532.527L44.4532 532.669L44.4497 532.667L44.5132 532.537L39.2488 530.019L3.18953 441.42L43.5854 421.361L43.9621 421.347L111.198 588.407ZM36.5348 528.721L2.79709 445.826L2.79709 512.221L31.6457 526.382L36.5348 528.721ZM111.769 578.004L111.368 577.018L111.365 577.019L45.2089 412.884L45.4619 419.652L112.032 585.057L111.769 578.004ZM98.2541 340.019L87.6788 313.721L87.6788 313.521L87.1214 313.239L87.1173 313.247L52.1689 295.894L45.0199 278.224L44.878 277.862L44.5233 277.692L44.4534 277.833L44.4499 277.832L44.5132 277.702L39.2518 275.185L3.19139 186.583L43.5772 166.53L43.9509 166.516L111.194 333.593L98.2541 340.019ZM45.4929 408.169L59.0031 401.246L69.4661 426.935L69.4659 426.949L69.4661 427.41L70.0336 427.691L110.177 447.397L153.428 554.686L112.833 575.242L45.4929 408.169ZM70.0336 427.691L70.1034 427.55L70.1043 427.551L70.0336 427.691ZM111.78 323.197L111.365 322.173L45.2201 158.066L45.4748 164.881L112.045 330.286L111.78 323.197ZM98.2542 85.1836L87.6789 58.8858L87.6789 58.6846L87.1214 58.4035L52.1638 41.0453L45.02 23.3881L44.878 23.0267L44.5233 22.8561L44.4571 22.9901L44.4496 22.9864L44.5132 22.8561L39.2496 20.3383L3.19355 -68.2526L43.5913 -88.3122L43.9356 -88.3248L111.183 78.7636L98.2542 85.1836ZM87.1214 58.4035L86.8233 58.9941L86.8214 58.9945L87.1214 58.4035ZM111.791 68.3572L111.78 68.3624L111.365 67.3384L45.2315 -96.7404L45.4876 -89.8905L112.058 75.515L111.791 68.3572ZM31.623 16.6903L2.79711 2.54049L2.79711 -63.8566L36.5356 19.0401L31.623 16.6903ZM36.5379 273.887L2.7971 190.985L2.7971 257.386L31.6826 271.565L36.5379 273.887Z" fill="#F2743E"/>
<path d="M87.6789 58.8858L98.2542 85.1836L111.183 78.7636L43.9356 -88.3248L43.5913 -88.3122L3.19355 -68.2526L39.2496 20.3383L44.5132 22.8561L44.4496 22.9864L44.4571 22.9901L44.5233 22.8561L44.878 23.0267L45.02 23.3881L52.1638 41.0453L87.1214 58.4035L87.6789 58.6846L87.6789 58.8858Z" fill="#F2743E"/>
<path d="M111.78 68.3624L111.791 68.3572L112.058 75.515L45.4876 -89.8905L45.2315 -96.7404L111.365 67.3384L111.78 68.3624Z" fill="#F2743E"/>
<path d="M2.79711 2.54049L31.623 16.6903L36.5356 19.0401L2.79711 -63.8566L2.79711 2.54049Z" fill="#F2743E"/>
<path d="M87.6788 313.721L98.2541 340.019L111.194 333.593L43.9509 166.516L43.5772 166.53L3.19139 186.583L39.2518 275.185L44.5132 277.702L44.4499 277.832L44.4534 277.833L44.5233 277.692L44.878 277.862L45.0199 278.224L52.1689 295.894L87.1173 313.247L87.1214 313.239L87.6788 313.521L87.6788 313.721Z" fill="#F2743E"/>
<path d="M111.365 322.173L111.78 323.197L112.045 330.286L45.4748 164.881L45.2201 158.066L111.365 322.173Z" fill="#F2743E"/>
<path d="M2.7971 190.985L36.5379 273.887L31.6826 271.565L2.7971 257.386L2.7971 190.985Z" fill="#F2743E"/>
<path d="M87.6788 600.086L111.198 588.407L43.9621 421.347L43.5854 421.361L3.18953 441.42L39.2488 530.019L44.5132 532.537L44.4497 532.667L44.4532 532.669L44.5233 532.527L44.878 532.698L45.0199 533.059L44.3832 533.31L44.3769 533.322L45.0199 533.069L52.1638 550.726L87.1173 568.082L87.1214 568.074L87.6788 568.356L87.6788 600.086Z" fill="#F2743E"/>
<path d="M59.0031 401.246L45.4929 408.169L112.833 575.242L153.428 554.686L110.177 447.397L70.0336 427.691L69.4661 427.41L69.4659 426.949L69.4661 426.935L59.0031 401.246Z" fill="#F2743E"/>
<path d="M111.368 577.018L111.769 578.004L112.032 585.057L45.4619 419.652L45.2089 412.884L111.365 577.019L111.368 577.018Z" fill="#F2743E"/>
<path d="M2.79709 445.826L36.5348 528.721L31.6457 526.382L2.79709 512.221L2.79709 445.826Z" fill="#F2743E"/>
<path d="M43.7529 24.8841L1.33731 4.06363L2.23932 2.26668L44.6549 23.0872L43.7529 24.8841ZM0.769745 3.17017L0.769748 -68.6877L2.79677 -68.6877L2.79677 3.17017L0.769745 3.17017ZM1.33731 -69.5811L43.7529 -90.6426L44.665 -88.8456L2.24947 -67.7842L1.33731 -69.5811ZM1.78326 3.17017L1.33731 4.07367L0.769745 3.79259L0.769745 3.17017L1.78326 3.17017ZM1.78326 -68.6877L0.769748 -68.6877L0.769748 -69.3101L1.32717 -69.5912L1.78326 -68.6877Z" fill="white"/>
<path d="M112.45 193.676L70.034 172.856L70.936 171.059L113.352 191.879L112.45 193.676ZM69.4664 171.952L69.4664 100.095L71.4934 100.095L71.4934 171.952L69.4664 171.952ZM70.0238 99.2011L112.439 78.1396L113.352 79.9366L70.936 100.998L70.0238 99.2011ZM70.4799 171.952L70.034 172.856L69.4664 172.575L69.4664 171.952L70.4799 171.952ZM70.4799 100.095L69.4664 100.095L69.4664 99.4721L70.0238 99.191L70.4799 100.095Z" fill="white"/>
<path d="M113.437 78.9426L45.207 -90.5869L43.3241 -89.8434L111.554 79.6861L113.437 78.9426Z" fill="white"/>
<path d="M71.8955 100.551L2.71387 -69.4307L0.833799 -68.68L70.0154 101.302L71.8955 100.551Z" fill="white"/>
<path d="M70.8245 160.874L2.73633 2.84668L0.87207 3.63473L68.9603 161.662L70.8245 160.874Z" fill="white"/>
<path d="M1.489 4.50485L3.85088 5.63462L43.282 24.4959L43.6309 24.6628L44.5127 22.8558L2.37075 2.69786L1.489 4.50485ZM71.3505 171.36L71.2062 171.006L3.85088 5.63462L2.86736 3.21988L0.992386 3.97279L69.4755 172.113L71.3505 171.36ZM112.692 191.347L110.316 190.183L71.2062 171.006L70.864 170.838L69.962 172.635L111.79 193.144L112.692 191.347ZM43.1343 24.1307L43.282 24.4959L110.316 190.183L111.303 192.622L113.188 191.879L45.0194 23.3879L43.1343 24.1307ZM1.9248 3.60135L2.3606 2.69786L-0.000869751 1.56347L0.982239 3.97279L1.9248 3.60135ZM70.408 171.742L69.4654 172.113L69.6073 172.464L69.9519 172.635L70.408 171.742ZM112.246 192.251L111.8 193.154L114.182 194.319L113.199 191.879L112.246 192.251ZM44.0768 23.7593L45.0194 23.3879L44.8775 23.0265L44.5228 22.8558L44.0768 23.7593Z" fill="white"/>
<path d="M43.282 24.4959L3.85088 5.63462L71.2062 171.006L110.316 190.183L43.282 24.4959Z" fill="#F2743E"/>
<path d="M86.0574 -124.563L43.7432 -102.88L44.6756 -101.093L45.4846 -101.507L85.9966 -122.268L86.9898 -122.777L86.0574 -124.563ZM155.655 45.1126L87.4662 -124.041L85.581 -123.299L85.9966 -122.268L153.431 45.0137L153.77 45.8555L155.655 45.1126ZM112.763 67.8606L155.169 46.3875L154.247 44.6006L153.431 45.0137L112.836 65.5697L111.841 66.0737L112.763 67.8606ZM43.2668 -101.615L111.365 67.3386L113.25 66.5957L112.836 65.5697L45.4846 -101.507L45.1418 -102.358L43.2668 -101.615ZM86.5236 -123.67L87.4662 -124.041L87.0506 -125.065L86.0574 -124.553L86.5236 -123.67ZM154.713 45.4841L155.179 46.3775L156 45.9659L155.655 45.1126L154.713 45.4841ZM112.307 66.9671L111.365 67.3386L111.78 68.3625L112.774 67.8606L112.307 66.9671ZM44.2094 -101.986L43.7432 -102.88L42.9222 -102.458L43.2668 -101.615L44.2094 -101.986Z" fill="white"/>
<path d="M85.9966 -122.268L45.4846 -101.507L112.836 65.5697L153.431 45.0137L85.9966 -122.268Z" fill="#F2743E"/>
<path d="M87.6684 -123.831L87.6686 -124.026L87.7248 -190.404L87.7293 -195.629L85.7022 -195.629L85.6414 -123.831L87.6684 -123.831ZM155.807 45.3633L153.851 40.5005L87.6686 -124.026L87.5975 -124.202L85.7124 -123.46L153.922 46.1062L155.807 45.3633ZM153.851 -26.1633L153.851 -25.9683L153.851 40.5005L153.851 45.7347L155.878 45.7347L155.878 -26.1633L153.851 -26.1633ZM85.7732 -195.257L87.7248 -190.404L153.851 -25.9683L153.922 -25.7919L155.807 -26.5347L87.6583 -196L85.7732 -195.257ZM86.6549 -123.831L85.6414 -123.831L85.6414 -123.64L85.7124 -123.46L86.6549 -123.831ZM154.864 45.7347L153.922 46.1062L155.878 45.7347L154.864 45.7347ZM154.864 -26.1633L155.878 -26.1633L155.878 -26.354L155.807 -26.5347L154.864 -26.1633ZM86.7157 -195.629L87.6583 -196L85.7022 -195.629L86.7157 -195.629Z" fill="white"/>
<path d="M87.7248 -190.404L87.6686 -124.026L153.851 40.5005L153.851 -25.9683L87.7248 -190.404Z" fill="#F2743E"/>
<path d="M114.263 80.2287L113.731 66.0137L111.706 66.088L112.237 80.303L114.263 80.2287Z" fill="white"/>
<path d="M43.7529 279.729L1.33731 258.909L2.23932 257.112L44.6549 277.932L43.7529 279.729ZM0.769745 258.005L0.769748 186.147L2.79677 186.147L2.79677 258.005L0.769745 258.005ZM1.33731 185.254L43.7529 164.192L44.665 165.989L2.24947 187.051L1.33731 185.254ZM1.78326 258.005L1.33731 258.909L0.769745 258.628L0.769745 258.005L1.78326 258.005ZM1.78326 186.147L0.769748 186.147L0.769748 185.525L1.32717 185.244L1.78326 186.147Z" fill="white"/>
<path d="M112.45 448.511L70.034 427.691L70.936 425.894L113.352 446.714L112.45 448.511ZM69.4664 426.787L69.4664 354.929L71.4934 354.929L71.4934 426.787L69.4664 426.787ZM70.0238 354.036L112.439 332.975L113.352 334.772L70.936 355.833L70.0238 354.036ZM70.4799 426.787L70.034 427.691L69.4664 427.41L69.4664 426.787L70.4799 426.787ZM70.4799 354.929L69.4664 354.929L69.4664 354.307L70.0238 354.026L70.4799 354.929Z" fill="white"/>
<path d="M113.447 333.771L45.2168 164.241L43.3339 164.985L111.564 334.514L113.447 333.771Z" fill="white"/>
<path d="M71.8965 355.394L2.71484 185.412L0.834775 186.163L70.0164 356.145L71.8965 355.394Z" fill="white"/>
<path d="M70.8216 415.697L2.7334 257.67L0.869141 258.458L68.9573 416.485L70.8216 415.697Z" fill="white"/>
<path d="M1.489 259.351L3.85088 260.48L43.2871 279.344L43.6309 279.508L44.5127 277.702L2.37075 257.544L1.489 259.351ZM71.3505 426.206L71.2062 425.851L3.85088 260.48L2.86736 258.066L0.992386 258.818L69.4755 426.959L71.3505 426.206ZM112.692 446.193L110.321 445.031L71.2062 425.851L70.864 425.684L69.962 427.481L111.79 447.99L112.692 446.193ZM43.1343 278.966L43.2871 279.344L110.321 445.031L111.303 447.458L113.188 446.715L45.0194 278.224L43.1343 278.966ZM1.9248 258.447L2.3606 257.544L-0.000869751 256.409L0.982239 258.818L1.9248 258.447ZM70.408 426.577L69.4654 426.949L69.6073 427.3L69.9519 427.471L70.408 426.577ZM112.246 447.086L111.8 447.99L114.182 449.154L113.199 446.715L112.246 447.086ZM44.0768 278.595L45.0194 278.224L44.8775 277.862L44.5228 277.691L44.0768 278.595Z" fill="white"/>
<path d="M43.2871 279.344L3.85088 260.48L71.2062 425.851L110.321 445.031L43.2871 279.344Z" fill="#F2743E"/>
<path d="M86.0574 130.271L43.7432 151.955L44.6756 153.742L45.4929 153.323L85.9933 132.569L86.9898 132.058L86.0574 130.271ZM155.655 299.958L87.4662 130.804L85.581 131.546L85.9933 132.569L153.428 299.85L153.77 300.7L155.655 299.958ZM112.763 322.696L155.169 301.223L154.247 299.436L153.428 299.85L112.836 320.405L111.841 320.909L112.763 322.696ZM43.2668 153.22L111.365 322.174L113.25 321.431L112.836 320.405L45.4929 153.323L45.1519 152.477L43.2668 153.22ZM86.5236 131.165L87.4662 130.793L87.0506 129.77L86.0574 130.282L86.5236 131.165ZM154.713 300.329L155.179 301.223L156 300.811L155.655 299.958L154.713 300.329ZM112.307 321.802L111.365 322.174L111.78 323.197L112.774 322.696L112.307 321.802ZM44.2094 152.849L43.7432 151.955L42.9222 152.377L43.2668 153.22L44.2094 152.849Z" fill="white"/>
<path d="M85.9933 132.569L45.4929 153.323L112.836 320.405L153.428 299.85L85.9933 132.569Z" fill="#F2743E"/>
<path d="M87.6684 131.005L87.6686 130.81L87.7248 64.432L87.7293 59.2074L85.7022 59.2074L85.6414 131.005L87.6684 131.005ZM155.807 300.199L153.851 295.336L87.6686 130.81L87.5975 130.634L85.7124 131.376L153.922 300.942L155.807 300.199ZM153.851 228.673L153.851 228.868L153.851 295.336L153.851 300.571L155.878 300.571L155.878 228.673L153.851 228.673ZM85.7732 59.5788L87.7248 64.432L153.851 228.868L153.922 229.044L155.807 228.301L87.6583 58.8359L85.7732 59.5788ZM86.6549 131.005L85.6414 131.005L85.6414 131.196L85.7124 131.376L86.6549 131.005ZM154.864 300.571L153.922 300.942L155.878 300.571L154.864 300.571ZM154.864 228.673L155.878 228.673L155.878 228.482L155.807 228.301L154.864 228.673ZM86.7157 59.2074L87.6583 58.8359L85.7022 59.2074L86.7157 59.2074Z" fill="white"/>
<path d="M87.7248 64.432L87.6686 130.81L153.851 295.336L153.851 228.868L87.7248 64.432Z" fill="#F2743E"/>
<path d="M83.3814 133.986L87.1314 132.048L86.199 130.271L85.6517 130.554L83.4353 131.699L82.449 132.209L83.3814 133.986ZM43.3071 38.6167L81.9726 133.463L83.8476 132.711L83.4353 131.699L46.1861 40.3268L45.182 37.8638L43.3071 38.6167ZM87.6787 131.155L87.6787 59.2967L85.6517 59.2967L85.6517 59.9234L85.6517 130.554L85.6517 131.155L87.6787 131.155ZM87.1213 58.4032L44.7057 37.3418L43.7935 39.1388L46.1861 40.3268L85.6517 59.9234L86.2091 60.2002L87.1213 58.4032ZM82.9152 133.092L81.9726 133.463L82.3882 134.487L83.3814 133.975L82.9152 133.092ZM86.6652 131.155L87.1314 132.048L87.6787 131.767L87.6787 131.155L86.6652 131.155ZM44.2496 38.2453L44.7057 37.3518L42.3037 36.1572L43.3071 38.6167L44.2496 38.2453ZM86.6652 59.3067L87.6787 59.3067L87.6787 58.6843L87.1213 58.4032L86.6652 59.3067Z" fill="white"/>
<path d="M83.4353 131.699L85.6517 130.554L85.6517 59.9234L46.1861 40.3268L83.4353 131.699Z" fill="#F2743E"/>
<path d="M45.5333 166.457L45.002 152.242L42.9763 152.316L43.5077 166.532L45.5333 166.457Z" fill="white"/>
<path d="M44.999 37.8046L44.999 23.9912L42.972 23.9912L42.972 37.8046L44.999 37.8046Z" fill="white"/>
<path d="M114.252 335.06L113.721 320.845L111.695 320.919L112.226 335.134L114.252 335.06Z" fill="white"/>
<path d="M43.7529 534.565L1.33731 513.745L2.23932 511.948L44.6549 532.768L43.7529 534.565ZM0.769745 512.841L0.769748 440.983L2.79677 440.983L2.79677 512.841L0.769745 512.841ZM1.33731 440.09L43.7529 419.028L44.665 420.825L2.24947 441.887L1.33731 440.09ZM1.78326 512.841L1.33731 513.745L0.769745 513.463L0.769745 512.841L1.78326 512.841ZM1.78326 440.983L0.769748 440.983L0.769748 440.361L1.32717 440.08L1.78326 440.983Z" fill="white"/>
<path d="M113.458 588.599L45.2275 419.069L43.3446 419.813L111.575 589.342L113.458 588.599Z" fill="white"/>
<path d="M71.8975 610.237L2.71582 440.255L0.835752 441.006L70.0174 610.987L71.8975 610.237Z" fill="white"/>
<path d="M86.0574 385.117L43.7432 406.801L44.6756 408.588L86.9898 386.904L86.0574 385.117ZM155.655 554.793L87.4662 385.639L85.581 386.382L153.77 555.536L155.655 554.793ZM112.763 577.531L155.169 556.058L154.247 554.271L111.841 575.744L112.763 577.531ZM43.2668 408.066L111.365 577.019L113.25 576.276L45.1519 407.323L43.2668 408.066ZM86.5236 386.011L87.4662 385.639L87.0506 384.615L86.0574 385.127L86.5236 386.011ZM154.713 555.165L155.179 556.058L156 555.647L155.655 554.793L154.713 555.165ZM112.307 576.638L111.365 577.009L111.78 578.033L112.774 577.531L112.307 576.638ZM44.2094 407.684L43.7432 406.791L42.9222 407.213L43.2668 408.056L44.2094 407.684Z" fill="white"/>
<path d="M87.6684 385.839L87.6686 385.644L87.7248 319.266L87.7293 314.041L85.7022 314.041L85.6414 385.839L87.6684 385.839ZM155.807 555.033L153.851 550.17L87.6686 385.644L87.5975 385.468L85.7124 386.21L153.922 555.776L155.807 555.033ZM153.851 483.507L153.851 483.702L153.851 550.17L153.851 555.405L155.878 555.405L155.878 483.507L153.851 483.507ZM85.7732 314.413L87.7248 319.266L153.851 483.702L153.922 483.878L155.807 483.135L87.6583 313.67L85.7732 314.413ZM86.6549 385.839L85.6414 385.839L85.6414 386.03L85.7124 386.21L86.6549 385.839ZM154.864 555.405L153.922 555.776L155.878 555.405L154.864 555.405ZM154.864 483.507L155.878 483.507L155.878 483.316L155.807 483.135L154.864 483.507ZM86.7157 314.041L87.6583 313.67L85.7022 314.041L86.7157 314.041Z" fill="white"/>
<path d="M87.7248 319.266L87.6686 385.644L153.851 550.17L153.851 483.702L87.7248 319.266Z" fill="#F2743E"/>
<path d="M83.3814 388.821L87.1314 386.884L86.199 385.107L85.6517 385.39L83.4353 386.535L82.449 387.045L83.3814 388.821ZM43.3071 293.453L81.9726 388.299L83.8476 387.547L83.4353 386.535L46.1912 295.175L45.182 292.7L43.3071 293.453ZM87.6787 386.001L87.6787 314.143L85.6517 314.143L85.6517 314.769L85.6517 385.39L85.6517 386.001L87.6787 386.001ZM87.1213 313.249L44.7057 292.188L43.7935 293.985L46.1912 295.175L85.6517 314.769L86.2091 315.046L87.1213 313.249ZM82.9152 387.928L81.9726 388.299L82.3882 389.323L83.3814 388.811L82.9152 387.928ZM86.6652 386.001L87.1314 386.894L87.6787 386.613L87.6787 386.001L86.6652 386.001ZM44.2496 293.081L44.7057 292.188L42.3037 290.993L43.3071 293.453L44.2496 293.081ZM86.6652 314.143L87.6787 314.143L87.6787 313.52L87.1213 313.239L86.6652 314.143Z" fill="white"/>
<path d="M83.4353 386.535L85.6517 385.39L85.6517 314.769L46.1912 295.175L83.4353 386.535Z" fill="#F2743E"/>
<path d="M45.5226 421.289L44.9912 407.074L42.9656 407.149L43.497 421.364L45.5226 421.289Z" fill="white"/>
<path d="M45 292.639L45 278.825L42.973 278.825L42.973 292.639L45 292.639Z" fill="white"/>
</svg>
