<svg width="154" height="273" viewBox="0 0 154 273" fill="none" xmlns="http://www.w3.org/2000/svg">
<path fill-rule="evenodd" clip-rule="evenodd" d="M84.5002 -192.628L42.4823 -170.889L42.4138 -170.886L42.415 -170.854L42.3499 -170.82L42.4229 -170.64L42.8578 -158.893L1.31982 -138.07L1.61137 -137.49L1.60586 -137.488L1.30981 -138.08L0.759821 -137.8L0.759818 -66.8315L-0.000344296 -67.2002L0.759818 -65.3194L0.759818 -64.9798L0.93183 -64.8938L0.969657 -64.8002L0.998893 -64.8118L1.00028 -64.8086L0.979667 -64.8002L57.4634 75.2096L42.4689 82.9681L42.4037 82.9705L42.4049 83.0013L42.3499 83.0298L42.4116 83.1821L42.8477 94.9613L1.31981 115.78L1.61473 116.366L1.60921 116.369L1.3098 115.77L0.75981 116.05L0.759807 187.029L-0.000355392 186.66L0.759807 188.541L0.759807 188.87L0.926372 188.953L0.969646 189.06L1.00488 189.046L1.00627 189.049L0.979655 189.06L57.4634 329.07L43.164 336.468L43.1599 336.46L42.4774 336.814L42.3932 336.817L42.3947 336.857L42.3499 336.88L42.4002 337.004L42.8375 348.816L1.3198 369.63L1.61791 370.223L1.61237 370.225L1.30979 369.62L0.759799 369.9L0.759796 440.878L-0.000366488 440.51L0.759796 442.391L0.759796 442.72L0.92659 442.803L0.969635 442.91L1.00668 442.895L1.00806 442.898L0.979644 442.91L68.4998 610.276L68.4998 610.85L69.0598 611.13L110.91 631.87L110.995 631.698L112.66 632.52L111.737 630.207L111.8 630.08L111.645 630.004L86.5097 567.281L86.5097 531.249L111.117 518.913L112.718 518.853L112.244 506.037L153.1 485.15L152.86 484.68L152.866 484.679L153.11 485.15L153.92 484.74L153.8 484.44L153.8 412.69L153.73 412.51L97.6881 271.814L111.151 265.065L112.729 265.007L112.254 252.182L153.1 231.3L152.86 230.83L152.867 230.829L153.11 231.3L153.92 230.89L153.8 230.589L153.8 158.84L153.73 158.66L97.6883 17.9645L111.142 11.2197L112.739 11.1606L112.264 -1.67313L153.1 -22.5499L152.86 -23.0198L152.871 -23.022L153.11 -22.5598L153.92 -22.9698L153.8 -23.2701L153.8 -95.01L153.73 -95.19L86.4898 -264L84.5598 -263.63L84.5002 -192.628ZM69.0598 611.13L69.1367 610.973L69.1378 610.973L69.0598 611.13ZM109.716 517.374L86.5097 529.007L86.5097 497.4L85.9597 497.12L85.9557 497.128L51.4683 479.839L44.4196 462.25L43.7852 462.502L43.7914 462.49L44.4196 462.24L44.2796 461.88L43.9296 461.71L43.8605 461.851L43.857 461.849L43.9196 461.72L38.7254 459.211L3.14701 370.955L43.0043 350.974L43.3759 350.96L109.716 517.374ZM36.0477 457.918L2.7598 375.344L2.7598 441.482L31.2238 455.589L36.0477 457.918ZM110.278 507.011L109.883 506.029L109.88 506.03L44.6061 342.53L44.8557 349.272L110.538 514.037L110.278 507.011ZM96.944 269.946L86.5097 243.75L86.5097 243.55L85.9597 243.27L85.9557 243.278L51.4733 225.992L44.4197 208.39L44.2796 208.03L43.9296 207.86L43.8607 208.001L43.8572 207.999L43.9197 207.87L38.7284 205.363L3.14883 117.104L42.9961 97.128L43.3649 97.1144L109.712 263.545L96.944 269.946ZM44.8863 337.833L58.2163 330.936L68.5398 356.526L68.5396 356.54L68.5398 357L69.0998 357.28L108.708 376.909L151.382 483.783L111.329 504.26L44.8863 337.833ZM69.0998 357.28L69.1686 357.139L69.1696 357.139L69.0998 357.28ZM110.29 253.19L109.88 252.17L44.6171 88.6971L44.8684 95.4852L110.551 260.251L110.29 253.19ZM96.9441 16.0963L86.5098 -10.0998L86.5098 -10.3003L85.9597 -10.5802L51.4682 -27.8713L44.4197 -45.4602L44.2797 -45.8202L43.9296 -45.9902L43.8644 -45.8567L43.8569 -45.8604L43.9197 -45.9902L38.7262 -48.4982L3.15096 -136.747L43.0101 -156.729L43.3498 -156.741L109.701 9.70117L96.9441 16.0963ZM85.9597 -10.5802L85.6656 -9.9919L85.6637 -9.99155L85.9597 -10.5802ZM110.3 -0.66498L110.29 -0.659853L109.88 -1.67984L44.6284 -165.124L44.8811 -158.301L110.564 6.46509L110.3 -0.66498ZM31.2014 -52.1322L2.75982 -66.2272L2.75982 -132.368L36.0485 -49.7914L31.2014 -52.1322ZM36.0507 204.07L2.75981 121.488L2.75981 187.632L31.2602 201.757L36.0507 204.07Z" fill="#F3F5F6"/>
<path d="M86.5098 -10.0998L96.9441 16.0963L109.701 9.70117L43.3498 -156.741L43.0101 -156.729L3.15096 -136.747L38.7262 -48.4982L43.9197 -45.9902L43.8569 -45.8604L43.8644 -45.8567L43.9296 -45.9902L44.2797 -45.8202L44.4197 -45.4602L51.4682 -27.8713L85.9597 -10.5802L86.5098 -10.3003L86.5098 -10.0998Z" fill="#F3F5F6"/>
<path d="M110.29 -0.659853L110.3 -0.66498L110.564 6.46509L44.8811 -158.301L44.6284 -165.124L109.88 -1.67984L110.29 -0.659853Z" fill="#F3F5F6"/>
<path d="M2.75982 -66.2272L31.2014 -52.1322L36.0485 -49.7914L2.75982 -132.368L2.75982 -66.2272Z" fill="#F3F5F6"/>
<path d="M86.5097 243.75L96.944 269.946L109.712 263.545L43.3649 97.1144L42.9961 97.128L3.14883 117.104L38.7284 205.363L43.9197 207.87L43.8572 207.999L43.8607 208.001L43.9296 207.86L44.2796 208.03L44.4197 208.39L51.4733 225.992L85.9557 243.278L85.9597 243.27L86.5097 243.55L86.5097 243.75Z" fill="#F3F5F6"/>
<path d="M109.88 252.17L110.29 253.19L110.551 260.251L44.8684 95.4852L44.6171 88.6971L109.88 252.17Z" fill="#F3F5F6"/>
<path d="M2.75981 121.488L36.0507 204.07L31.2602 201.757L2.75981 187.632L2.75981 121.488Z" fill="#F3F5F6"/>
<path d="M86.5097 529.007L109.716 517.374L43.3759 350.96L43.0043 350.974L3.14701 370.955L38.7254 459.211L43.9196 461.72L43.857 461.849L43.8605 461.851L43.9296 461.71L44.2796 461.88L44.4196 462.24L43.7914 462.49L43.7852 462.502L44.4196 462.25L51.4683 479.839L85.9557 497.128L85.9597 497.12L86.5097 497.4L86.5097 529.007Z" fill="#F3F5F6"/>
<path d="M58.2163 330.936L44.8863 337.833L111.329 504.26L151.382 483.783L108.708 376.909L69.0998 357.28L68.5398 357L68.5396 356.54L68.5398 356.526L58.2163 330.936Z" fill="#F3F5F6"/>
<path d="M109.883 506.029L110.278 507.011L110.538 514.037L44.8557 349.272L44.6061 342.53L109.88 506.03L109.883 506.029Z" fill="#F3F5F6"/>
<path d="M2.7598 375.344L36.0477 457.918L31.2238 455.589L2.7598 441.482L2.7598 375.344Z" fill="#F3F5F6"/>
<path d="M110.95 124.17L69.0998 103.43L69.9898 101.64L111.84 122.38L110.95 124.17ZM68.5399 102.53L68.5399 30.9501L70.5399 30.9501L70.5399 102.53L68.5399 102.53ZM69.0898 30.0601L110.94 9.08008L111.84 10.8701L69.9898 31.8501L69.0898 30.0601ZM69.5399 102.53L69.0998 103.43L68.5399 103.15L68.5399 102.53L69.5399 102.53ZM69.5399 30.9501L68.5399 30.9501L68.5399 30.3301L69.0898 30.0501L69.5399 30.9501Z" fill="#EE7441"/>
<path d="M111.925 9.87987L44.6045 -158.994L42.7467 -158.254L110.067 10.6205L111.925 9.87987Z" fill="#EE7441"/>
<path d="M70.9369 31.4045L2.67773 -137.92L0.822734 -137.172L69.0819 32.1523L70.9369 31.4045Z" fill="#EE7441"/>
<path d="M69.8805 91.494L2.7002 -65.9219L0.860795 -65.1369L68.0411 92.279L69.8805 91.494Z" fill="#EE7441"/>
<path d="M1.46918 -64.2712L3.79957 -63.1458L42.7049 -44.3574L43.0492 -44.1912L43.9192 -45.9912L2.33917 -66.0712L1.46918 -64.2712ZM70.3992 101.939L70.2568 101.586L3.79957 -63.1458L2.82916 -65.5512L0.979187 -64.8012L68.5492 102.689L70.3992 101.939ZM111.189 121.849L108.845 120.688L70.2568 101.586L69.9192 101.419L69.0292 103.209L110.299 123.639L111.189 121.849ZM42.5592 -44.7212L42.7049 -44.3574L108.845 120.688L109.819 123.119L111.679 122.379L44.4192 -45.4612L42.5592 -44.7212ZM1.89917 -65.1712L2.32916 -66.0712L-0.000823975 -67.2012L0.969177 -64.8012L1.89917 -65.1712ZM69.4692 102.319L68.5392 102.689L68.6792 103.039L69.0192 103.209L69.4692 102.319ZM110.749 122.749L110.309 123.649L112.659 124.809L111.689 122.379L110.749 122.749ZM43.4892 -45.0912L44.4192 -45.4612L44.2792 -45.8212L43.9292 -45.9912L43.4892 -45.0912Z" fill="#EE7441"/>
<path d="M42.7049 -44.3574L3.79957 -63.1458L70.2568 101.586L108.845 120.688L42.7049 -44.3574Z" fill="#F3F5F6"/>
<path d="M112.739 11.1601L112.215 -3L110.216 -2.926L110.741 11.2341L112.739 11.1601Z" fill="#EE7441"/>
<path d="M43.1693 209.889L1.31933 189.149L2.20932 187.359L44.0593 208.099L43.1693 209.889ZM0.759334 188.249L0.759337 116.669L2.75934 116.669L2.75933 188.249L0.759334 188.249ZM1.31934 115.779L43.1693 94.7988L44.0693 96.5888L2.21933 117.569L1.31934 115.779ZM1.75933 188.249L1.31933 189.149L0.759334 188.869L0.759334 188.249L1.75933 188.249ZM1.75934 116.669L0.759337 116.669L0.759337 116.049L1.30933 115.769L1.75934 116.669Z" fill="#EE7441"/>
<path d="M110.95 378.02L69.0998 357.28L69.9898 355.49L111.84 376.23L110.95 378.02ZM68.5399 356.38L68.5399 284.8L70.5399 284.8L70.5399 356.38L68.5399 356.38ZM69.0898 283.91L110.94 262.93L111.84 264.72L69.9898 285.7L69.0898 283.91ZM69.5399 356.38L69.0998 357.28L68.5399 357L68.5399 356.38L69.5399 356.38ZM69.5399 284.8L68.5399 284.8L68.5399 284.18L69.0898 283.9L69.5399 284.8Z" fill="#EE7441"/>
<path d="M111.935 263.722L44.6145 94.8477L42.7567 95.5883L110.077 264.462L111.935 263.722Z" fill="#EE7441"/>
<path d="M70.9379 285.262L2.67871 115.938L0.823711 116.685L69.0829 286.01L70.9379 285.262Z" fill="#EE7441"/>
<path d="M69.8776 345.332L2.69727 187.916L0.857866 188.701L68.0382 346.117L69.8776 345.332Z" fill="#EE7441"/>
<path d="M1.46918 189.59L3.79957 190.716L42.7099 209.506L43.0492 209.67L43.9192 207.87L2.33917 187.79L1.46918 189.59ZM70.3992 355.8L70.2568 355.447L3.79957 190.716L2.82916 188.31L0.979187 189.06L68.5492 356.55L70.3992 355.8ZM111.189 375.71L108.85 374.552L70.2568 355.447L69.9192 355.28L69.0292 357.07L110.299 377.5L111.189 375.71ZM42.5592 209.13L42.7099 209.506L108.85 374.552L109.819 376.97L111.679 376.23L44.4192 208.39L42.5592 209.13ZM1.89917 188.69L2.32916 187.79L-0.000823975 186.66L0.969177 189.06L1.89917 188.69ZM69.4692 356.17L68.5392 356.54L68.6792 356.89L69.0192 357.06L69.4692 356.17ZM110.749 376.6L110.309 377.5L112.659 378.66L111.689 376.23L110.749 376.6ZM43.4892 208.76L44.4192 208.39L44.2792 208.03L43.9292 207.86L43.4892 208.76Z" fill="#EE7441"/>
<path d="M42.7099 209.506L3.79957 190.716L70.2568 355.447L108.85 374.552L42.7099 209.506Z" fill="#F3F5F6"/>
<path d="M84.9099 61.0098L43.1599 82.6098L44.0799 84.3898L44.8864 83.9725L84.8467 63.2985L85.8299 62.7898L84.9099 61.0098ZM153.58 230.04L86.2999 61.5398L84.4399 62.2798L84.8467 63.2985L151.382 229.933L151.72 230.78L153.58 230.04ZM111.26 252.69L153.1 231.3L152.19 229.52L151.382 229.933L111.332 250.408L110.35 250.91L111.26 252.69ZM42.6899 83.8698L109.88 252.17L111.74 251.43L111.332 250.408L44.8864 83.9725L44.5499 83.1297L42.6899 83.8698ZM85.3699 61.8998L86.2999 61.5298L85.8899 60.5098L84.9099 61.0198L85.3699 61.8998ZM152.65 230.41L153.11 231.3L153.92 230.89L153.58 230.04L152.65 230.41ZM110.81 251.8L109.88 252.17L110.29 253.19L111.27 252.69L110.81 251.8ZM43.6199 83.4998L43.1599 82.6098L42.3499 83.0298L42.6899 83.8698L43.6199 83.4998Z" fill="#EE7441"/>
<path d="M84.8467 63.2985L44.8864 83.9725L111.332 250.408L151.382 229.933L84.8467 63.2985Z" fill="#F3F5F6"/>
<path d="M86.4998 61.7396L86.5 61.5457L86.5555 -4.57599L86.5598 -9.7804L84.5598 -9.7804L84.4998 61.7396L86.4998 61.7396ZM153.73 230.28L151.8 225.436L86.5 61.5457L86.4298 61.3696L84.5698 62.1096L151.87 231.02L153.73 230.28ZM151.8 159.03L151.8 159.224L151.8 225.436L151.8 230.65L153.8 230.65L153.8 159.03L151.8 159.03ZM84.6298 -9.41039L86.5555 -4.57599L151.8 159.224L151.87 159.4L153.73 158.66L86.4898 -10.1504L84.6298 -9.41039ZM85.4998 61.7396L84.4998 61.7396L84.4998 61.9296L84.5698 62.1096L85.4998 61.7396ZM152.8 230.65L151.87 231.02L153.8 230.65L152.8 230.65ZM152.8 159.03L153.8 159.03L153.8 158.84L153.73 158.66L152.8 159.03ZM85.5598 -9.7804L86.4898 -10.1504L84.5598 -9.7804L85.5598 -9.7804Z" fill="#EE7441"/>
<path d="M86.5555 -4.57599L86.5 61.5457L151.8 225.436L151.8 159.224L86.5555 -4.57599Z" fill="#F3F5F6"/>
<path d="M82.2697 64.7098L85.9698 62.7798L85.0497 61.0098L84.5098 61.2914L82.3229 62.4321L81.3498 62.9398L82.2697 64.7098ZM42.7298 -30.2902L80.8798 64.1898L82.7298 63.4398L82.3229 62.4321L45.5704 -28.5868L44.5797 -31.0402L42.7298 -30.2902ZM86.5098 61.8898L86.5098 -9.69025L84.5098 -9.69025L84.5098 -9.06595L84.5098 61.2914L84.5098 61.8898L86.5098 61.8898ZM85.9597 -10.5802L44.1097 -31.5602L43.2097 -29.7702L45.5704 -28.5868L84.5098 -9.06595L85.0598 -8.79024L85.9597 -10.5802ZM81.8097 63.8198L80.8798 64.1898L81.2898 65.2098L82.2697 64.6998L81.8097 63.8198ZM85.5098 61.8898L85.9698 62.7798L86.5098 62.4998L86.5098 61.8898L85.5098 61.8898ZM43.6598 -30.6602L44.1097 -31.5502L41.7397 -32.7402L42.7298 -30.2902L43.6598 -30.6602ZM85.5098 -9.68024L86.5098 -9.68024L86.5098 -10.3002L85.9597 -10.5802L85.5098 -9.68024Z" fill="#EE7441"/>
<path d="M82.3229 62.4321L84.5098 61.2914L84.5098 -9.06595L45.5704 -28.5868L82.3229 62.4321Z" fill="#F3F5F6"/>
<path d="M44.9266 97.0566L44.4023 82.8965L42.4037 82.9705L42.928 97.1306L44.9266 97.0566Z" fill="#EE7441"/>
<path d="M112.728 265.006L112.204 250.846L110.206 250.92L110.73 265.08L112.728 265.006Z" fill="#EE7441"/>
<path d="M86.4998 315.589L86.5 315.395L86.5555 249.274L86.5598 244.069L84.5598 244.069L84.4998 315.589L86.4998 315.589ZM153.73 484.129L151.8 479.285L86.5 315.395L86.4298 315.219L84.5698 315.959L151.87 484.869L153.73 484.129ZM151.8 412.879L151.8 413.073L151.8 479.285L151.8 484.499L153.8 484.499L153.8 412.879L151.8 412.879ZM84.6298 244.439L86.5555 249.274L151.8 413.073L151.87 413.249L153.73 412.509L86.4898 243.699L84.6298 244.439ZM85.4998 315.589L84.4998 315.589L84.4998 315.779L84.5698 315.959L85.4998 315.589ZM152.8 484.499L151.87 484.869L153.8 484.499L152.8 484.499ZM152.8 412.879L153.8 412.879L153.8 412.689L153.73 412.509L152.8 412.879ZM85.5598 244.069L86.4898 243.699L84.5598 244.069L85.5598 244.069Z" fill="#EE7441"/>
<path d="M86.5555 249.274L86.5 315.395L151.8 479.285L151.8 413.073L86.5555 249.274Z" fill="#F3F5F6"/>
<path d="M82.2697 318.559L85.9698 316.629L85.0497 314.859L84.5098 315.141L82.3229 316.282L81.3498 316.789L82.2697 318.559ZM42.7298 223.559L80.8798 318.039L82.7298 317.289L82.3229 316.282L45.5755 225.275L44.5797 222.809L42.7298 223.559ZM86.5098 315.749L86.5098 244.169L84.5098 244.169L84.5098 244.794L84.5098 315.141L84.5098 315.749L86.5098 315.749ZM85.9597 243.279L44.1097 222.299L43.2097 224.089L45.5755 225.275L84.5098 244.794L85.0598 245.069L85.9597 243.279ZM81.8097 317.669L80.8798 318.039L81.2898 319.059L82.2697 318.549L81.8097 317.669ZM85.5098 315.749L85.9698 316.639L86.5098 316.359L86.5098 315.749L85.5098 315.749ZM43.6598 223.189L44.1097 222.299L41.7397 221.109L42.7298 223.559L43.6598 223.189ZM85.5098 244.169L86.5098 244.169L86.5098 243.549L85.9597 243.269L85.5098 244.169Z" fill="#EE7441"/>
<path d="M82.3229 316.282L84.5098 315.141L84.5098 244.794L45.5755 225.275L82.3229 316.282Z" fill="#F3F5F6"/>
<path d="M44.4004 222.75L44.4004 208.99L42.4004 208.99L42.4004 222.75L44.4004 222.75Z" fill="#EE7441"/>
</svg>
