<svg width="154" height="846" viewBox="0 0 154 846" fill="none" xmlns="http://www.w3.org/2000/svg">
<path fill-rule="evenodd" clip-rule="evenodd" d="M84.5012 20.3721L42.4833 42.1115L42.4147 42.114L42.4159 42.1464L42.3509 42.1802L42.4239 42.3604L42.8588 54.1066L1.3208 74.9302L1.61234 75.51L1.60684 75.5123L1.31079 74.9202L0.760798 75.2002L0.760795 146.168L0.000632267 145.8L0.760795 147.681L0.760795 148.02L0.932807 148.106L0.970633 148.2L0.999869 148.188L1.00126 148.191L0.980643 148.2L57.4644 288.21L42.4699 295.968L42.4047 295.97L42.4058 296.001L42.3509 296.03L42.4125 296.182L42.8487 307.961L1.32078 328.78L1.61571 329.366L1.61018 329.369L1.31077 328.77L0.760787 329.05L0.760784 400.029L0.00062117 399.66L0.760783 401.541L0.760783 401.87L0.927348 401.953L0.970622 402.06L1.00585 402.046L1.00724 402.049L0.980632 402.06L57.4643 542.07L43.1649 549.468L43.1609 549.46L42.4783 549.814L42.3942 549.817L42.3957 549.857L42.3509 549.88L42.4011 550.004L42.8385 561.816L1.32077 582.63L1.61888 583.223L1.61335 583.225L1.31076 582.62L0.760776 582.9L0.760772 653.878L0.000610074 653.51L0.760772 655.391L0.760772 655.72L0.927566 655.803L0.970611 655.91L1.00766 655.895L1.00903 655.898L0.980621 655.91L68.5008 823.276L68.5008 823.85L69.0608 824.13L110.911 844.87L110.996 844.698L112.661 845.52L111.738 843.207L111.801 843.08L111.646 843.004L86.5107 780.281L86.5107 744.249L111.117 731.913L112.719 731.853L112.245 719.037L153.101 698.15L152.861 697.68L152.867 697.679L153.111 698.15L153.921 697.74L153.801 697.44L153.801 625.69L153.731 625.51L97.6891 484.814L111.152 478.065L112.73 478.007L112.255 465.182L153.101 444.3L152.861 443.83L152.868 443.829L153.111 444.3L153.921 443.89L153.801 443.589L153.801 371.84L153.731 371.66L97.6892 230.964L111.143 224.22L112.74 224.161L112.265 211.327L153.101 190.45L152.861 189.98L152.872 189.978L153.111 190.44L153.921 190.03L153.801 189.73L153.801 117.99L153.731 117.81L86.4908 -51L84.5608 -50.63L84.5012 20.3721ZM69.0608 824.13L69.1377 823.973L69.1388 823.973L69.0608 824.13ZM109.717 730.374L86.5107 742.007L86.5107 710.4L85.9607 710.12L85.9567 710.128L51.4693 692.839L44.4206 675.25L43.7862 675.502L43.7923 675.49L44.4206 675.24L44.2806 674.88L43.9306 674.71L43.8615 674.851L43.858 674.849L43.9206 674.72L38.7264 672.211L3.14798 583.955L43.0052 563.974L43.3768 563.96L109.717 730.374ZM36.0487 670.918L2.76078 588.344L2.76077 654.482L31.2248 668.589L36.0487 670.918ZM110.279 720.011L109.884 719.029L109.881 719.03L44.6071 555.53L44.8567 562.272L110.539 727.037L110.279 720.011ZM96.9449 482.946L86.5107 456.75L86.5107 456.55L85.9607 456.27L85.9567 456.278L51.4743 438.992L44.4206 421.39L44.2806 421.03L43.9306 420.86L43.8617 421.001L43.8582 420.999L43.9206 420.87L38.7294 418.363L3.14981 330.104L42.9971 310.128L43.3659 310.114L109.713 476.545L96.9449 482.946ZM44.8873 550.833L58.2173 543.936L68.5408 569.526L68.5406 569.54L68.5408 570L69.1008 570.28L108.709 589.909L151.383 696.783L111.329 717.26L44.8873 550.833ZM69.1008 570.28L69.1696 570.139L69.1705 570.139L69.1008 570.28ZM110.291 466.19L109.881 465.17L44.6181 301.697L44.8694 308.485L110.552 473.251L110.291 466.19ZM96.9451 229.096L86.5107 202.9L86.5107 202.7L85.9607 202.42L51.4692 185.129L44.4206 167.54L44.2806 167.18L43.9306 167.01L43.8653 167.143L43.8579 167.14L43.9206 167.01L38.7272 164.502L3.15194 76.2534L43.0111 56.2714L43.3508 56.2589L109.702 222.701L96.9451 229.096ZM85.9607 202.42L85.6666 203.008L85.6647 203.008L85.9607 202.42ZM110.301 212.335L110.291 212.34L109.881 211.32L44.6294 47.8758L44.882 54.6992L110.565 219.465L110.301 212.335ZM31.2023 160.868L2.76079 146.773L2.7608 80.6324L36.0495 163.209L31.2023 160.868ZM36.0517 417.07L2.76079 334.488L2.76078 400.632L31.2611 414.757L36.0517 417.07Z" fill="#F3F5F6"/>
<path d="M86.5107 202.9L96.9451 229.096L109.702 222.701L43.3508 56.2589L43.0111 56.2714L3.15194 76.2534L38.7272 164.502L43.9206 167.01L43.8579 167.14L43.8653 167.143L43.9306 167.01L44.2806 167.18L44.4206 167.54L51.4692 185.129L85.9607 202.42L86.5107 202.7L86.5107 202.9Z" fill="#F3F5F6"/>
<path d="M110.291 212.34L110.301 212.335L110.565 219.465L44.882 54.6992L44.6294 47.8758L109.881 211.32L110.291 212.34Z" fill="#F3F5F6"/>
<path d="M2.76079 146.773L31.2023 160.868L36.0495 163.209L2.7608 80.6324L2.76079 146.773Z" fill="#F3F5F6"/>
<path d="M86.5107 456.75L96.9449 482.946L109.713 476.545L43.3659 310.114L42.9971 310.128L3.14981 330.104L38.7294 418.363L43.9206 420.87L43.8582 420.999L43.8617 421.001L43.9306 420.86L44.2806 421.03L44.4206 421.39L51.4743 438.992L85.9567 456.278L85.9607 456.27L86.5107 456.55L86.5107 456.75Z" fill="#F3F5F6"/>
<path d="M109.881 465.17L110.291 466.19L110.552 473.251L44.8694 308.485L44.6181 301.697L109.881 465.17Z" fill="#F3F5F6"/>
<path d="M2.76079 334.488L36.0517 417.07L31.2611 414.757L2.76078 400.632L2.76079 334.488Z" fill="#F3F5F6"/>
<path d="M86.5107 742.007L109.717 730.374L43.3768 563.96L43.0052 563.974L3.14798 583.955L38.7264 672.211L43.9206 674.72L43.858 674.849L43.8615 674.851L43.9306 674.71L44.2806 674.88L44.4206 675.24L43.7923 675.49L43.7862 675.502L44.4206 675.25L51.4693 692.839L85.9567 710.128L85.9607 710.12L86.5107 710.4L86.5107 742.007Z" fill="#F3F5F6"/>
<path d="M58.2173 543.936L44.8873 550.833L111.329 717.26L151.383 696.783L108.709 589.909L69.1008 570.28L68.5408 570L68.5406 569.54L68.5408 569.526L58.2173 543.936Z" fill="#F3F5F6"/>
<path d="M109.884 719.029L110.279 720.011L110.539 727.037L44.8567 562.272L44.6071 555.53L109.881 719.03L109.884 719.029Z" fill="#F3F5F6"/>
<path d="M2.76078 588.344L36.0487 670.918L31.2248 668.589L2.76077 654.482L2.76078 588.344Z" fill="#F3F5F6"/>
<path d="M43.1703 169.03L1.32031 148.29L2.21029 146.5L44.0603 167.24L43.1703 169.03ZM0.760311 147.4L0.760314 75.8197L2.76031 75.8197L2.76031 147.4L0.760311 147.4ZM1.32031 74.9297L43.1703 53.9497L44.0703 55.7397L2.22031 76.7197L1.32031 74.9297ZM1.76031 147.4L1.32031 148.3L0.760311 148.02L0.760311 147.4L1.76031 147.4ZM1.76031 75.8197L0.760314 75.8197L0.760314 75.1997L1.3103 74.9197L1.76031 75.8197Z" fill="#EE7441"/>
<path d="M110.951 337.17L69.1008 316.43L69.9908 314.64L111.841 335.38L110.951 337.17ZM68.5408 315.53L68.5408 243.95L70.5408 243.95L70.5408 315.53L68.5408 315.53ZM69.0908 243.06L110.941 222.08L111.841 223.87L69.9908 244.85L69.0908 243.06ZM69.5408 315.53L69.1008 316.43L68.5408 316.15L68.5408 315.53L69.5408 315.53ZM69.5408 243.95L68.5408 243.95L68.5408 243.33L69.0908 243.05L69.5408 243.95Z" fill="#EE7441"/>
<path d="M111.926 222.879L44.6055 54.0054L42.7477 54.746L110.068 223.62L111.926 222.879Z" fill="#EE7441"/>
<path d="M70.9379 244.404L2.67871 75.0796L0.823711 75.8274L69.0829 245.152L70.9379 244.404Z" fill="#EE7441"/>
<path d="M69.8815 304.494L2.70117 147.078L0.861772 147.863L68.0421 305.279L69.8815 304.494Z" fill="#EE7441"/>
<path d="M1.47015 148.73L3.80054 149.855L42.7059 168.644L43.0501 168.81L43.9202 167.01L2.34015 146.93L1.47015 148.73ZM70.4001 314.94L70.2578 314.587L3.80054 149.855L2.83014 147.45L0.980163 148.2L68.5501 315.69L70.4001 314.94ZM111.19 334.85L108.846 333.689L70.2578 314.587L69.9202 314.42L69.0301 316.21L110.3 336.64L111.19 334.85ZM42.5601 168.28L42.7059 168.644L108.846 333.689L109.82 336.12L111.68 335.38L44.4202 167.54L42.5601 168.28ZM1.90015 147.83L2.33014 146.93L0.000152588 145.8L0.970154 148.2L1.90015 147.83ZM69.4701 315.32L68.5402 315.69L68.6801 316.04L69.0201 316.21L69.4701 315.32ZM110.75 335.75L110.31 336.65L112.66 337.81L111.69 335.38L110.75 335.75ZM43.4901 167.91L44.4202 167.54L44.2802 167.18L43.9301 167.01L43.4901 167.91Z" fill="#EE7441"/>
<path d="M42.7059 168.644L3.80054 149.855L70.2578 314.587L108.846 333.689L42.7059 168.644Z" fill="#F3F5F6"/>
<path d="M84.9109 20.1602L43.1609 41.7602L44.0809 43.5402L44.8791 43.1272L84.8509 22.4471L85.8309 21.9402L84.9109 20.1602ZM153.581 189.18L86.3009 20.6802L84.4409 21.4202L84.8509 22.4471L151.386 189.082L151.721 189.92L153.581 189.18ZM111.261 211.84L153.101 190.45L152.191 188.67L151.386 189.082L111.333 209.558L110.351 210.06L111.261 211.84ZM42.6909 43.0202L109.881 211.32L111.741 210.58L111.333 209.558L44.8791 43.1272L44.5409 42.2802L42.6909 43.0202ZM85.3709 21.0502L86.3009 20.6802L85.8909 19.6602L84.9109 20.1702L85.3709 21.0502ZM152.651 189.55L153.111 190.44L153.921 190.03L153.581 189.18L152.651 189.55ZM110.811 210.95L109.881 211.32L110.291 212.34L111.271 211.84L110.811 210.95ZM43.6209 42.6502L43.1609 41.7602L42.3509 42.1802L42.6909 43.0202L43.6209 42.6502Z" fill="#EE7441"/>
<path d="M84.8509 22.4471L44.8791 43.1272L111.333 209.558L151.386 189.082L84.8509 22.4471Z" fill="#F3F5F6"/>
<path d="M86.5008 20.89L86.501 20.6961L86.5564 -45.4256L86.5608 -50.63L84.5608 -50.63L84.5008 20.89L86.5008 20.89ZM153.731 189.43L151.801 184.586L86.501 20.6961L86.4308 20.52L84.5708 21.26L151.871 190.17L153.731 189.43ZM151.801 118.18L151.801 118.374L151.801 184.586L151.801 189.8L153.801 189.8L153.801 118.18L151.801 118.18ZM84.6308 -50.26L86.5564 -45.4256L151.801 118.374L151.871 118.55L153.731 117.81L86.4908 -51L84.6308 -50.26ZM85.5008 20.89L84.5008 20.89L84.5008 21.08L84.5708 21.26L85.5008 20.89ZM152.801 189.8L151.871 190.17L153.801 189.8L152.801 189.8ZM152.801 118.18L153.801 118.18L153.801 117.99L153.731 117.81L152.801 118.18ZM85.5608 -50.63L86.4908 -51L84.5608 -50.63L85.5608 -50.63Z" fill="#EE7441"/>
<path d="M86.5564 -45.4256L86.501 20.6961L151.801 184.586L151.801 118.374L86.5564 -45.4256Z" fill="#F3F5F6"/>
<path d="M44.9374 56.2001L44.4131 42.04L42.4145 42.114L42.9388 56.2741L44.9374 56.2001Z" fill="#EE7441"/>
<path d="M112.74 224.161L112.216 210L110.217 210.074L110.742 224.235L112.74 224.161Z" fill="#EE7441"/>
<path d="M43.1703 422.89L1.32031 402.15L2.21029 400.36L44.0603 421.1L43.1703 422.89ZM0.760311 401.25L0.760314 329.67L2.76031 329.67L2.76031 401.25L0.760311 401.25ZM1.32031 328.78L43.1703 307.8L44.0703 309.59L2.22031 330.57L1.32031 328.78ZM1.76031 401.25L1.32031 402.15L0.760311 401.87L0.760311 401.25L1.76031 401.25ZM1.76031 329.67L0.760314 329.67L0.760314 329.05L1.3103 328.77L1.76031 329.67Z" fill="#EE7441"/>
<path d="M110.951 591.02L69.1008 570.28L69.9908 568.49L111.841 589.23L110.951 591.02ZM68.5408 569.38L68.5408 497.8L70.5408 497.8L70.5408 569.38L68.5408 569.38ZM69.0908 496.91L110.941 475.93L111.841 477.72L69.9908 498.7L69.0908 496.91ZM69.5408 569.38L69.1008 570.28L68.5408 570L68.5408 569.38L69.5408 569.38ZM69.5408 497.8L68.5408 497.8L68.5408 497.18L69.0908 496.9L69.5408 497.8Z" fill="#EE7441"/>
<path d="M111.936 476.722L44.6152 307.848L42.7574 308.589L110.078 477.463L111.936 476.722Z" fill="#EE7441"/>
<path d="M70.9389 498.261L2.67969 328.937L0.824687 329.685L69.0839 499.009L70.9389 498.261Z" fill="#EE7441"/>
<path d="M69.8785 558.332L2.69824 400.916L0.858842 401.701L68.0391 559.117L69.8785 558.332Z" fill="#EE7441"/>
<path d="M1.47015 402.59L3.80054 403.716L42.7109 422.506L43.0501 422.67L43.9202 420.87L2.34015 400.79L1.47015 402.59ZM70.4001 568.8L70.2578 568.447L3.80054 403.716L2.83014 401.31L0.980163 402.06L68.5501 569.55L70.4001 568.8ZM111.19 588.71L108.851 587.552L70.2578 568.447L69.9202 568.28L69.0301 570.07L110.3 590.5L111.19 588.71ZM42.5601 422.13L42.7109 422.506L108.851 587.552L109.82 589.97L111.68 589.23L44.4202 421.39L42.5601 422.13ZM1.90015 401.69L2.33014 400.79L0.000152588 399.66L0.970154 402.06L1.90015 401.69ZM69.4701 569.17L68.5402 569.54L68.6801 569.89L69.0201 570.06L69.4701 569.17ZM110.75 589.6L110.31 590.5L112.66 591.66L111.69 589.23L110.75 589.6ZM43.4901 421.76L44.4202 421.39L44.2802 421.03L43.9301 420.86L43.4901 421.76Z" fill="#EE7441"/>
<path d="M42.7109 422.506L3.80054 403.716L70.2578 568.447L108.851 587.552L42.7109 422.506Z" fill="#F3F5F6"/>
<path d="M84.9109 274.01L43.1609 295.61L44.0809 297.39L44.8873 296.973L84.8476 276.298L85.8309 275.79L84.9109 274.01ZM153.581 443.04L86.3009 274.54L84.4409 275.28L84.8476 276.298L151.383 442.933L151.721 443.78L153.581 443.04ZM111.261 465.69L153.101 444.3L152.191 442.52L151.383 442.933L111.333 463.408L110.351 463.91L111.261 465.69ZM42.6909 296.87L109.881 465.17L111.741 464.43L111.333 463.408L44.8873 296.973L44.5509 296.13L42.6909 296.87ZM85.3709 274.9L86.3009 274.53L85.8909 273.51L84.9109 274.02L85.3709 274.9ZM152.651 443.41L153.111 444.3L153.921 443.89L153.581 443.04L152.651 443.41ZM110.811 464.8L109.881 465.17L110.291 466.19L111.271 465.69L110.811 464.8ZM43.6209 296.5L43.1609 295.61L42.3509 296.03L42.6909 296.87L43.6209 296.5Z" fill="#EE7441"/>
<path d="M84.8476 276.298L44.8873 296.973L111.333 463.408L151.383 442.933L84.8476 276.298Z" fill="#F3F5F6"/>
<path d="M86.5008 274.74L86.501 274.546L86.5564 208.425L86.5608 203.22L84.5608 203.22L84.5008 274.74L86.5008 274.74ZM153.731 443.28L151.801 438.436L86.501 274.546L86.4308 274.37L84.5708 275.11L151.871 444.02L153.731 443.28ZM151.801 372.03L151.801 372.224L151.801 438.436L151.801 443.65L153.801 443.65L153.801 372.03L151.801 372.03ZM84.6308 203.59L86.5564 208.425L151.801 372.224L151.871 372.4L153.731 371.66L86.4908 202.85L84.6308 203.59ZM85.5008 274.74L84.5008 274.74L84.5008 274.93L84.5708 275.11L85.5008 274.74ZM152.801 443.65L151.871 444.02L153.801 443.65L152.801 443.65ZM152.801 372.03L153.801 372.03L153.801 371.84L153.731 371.66L152.801 372.03ZM85.5608 203.22L86.4908 202.85L84.5608 203.22L85.5608 203.22Z" fill="#EE7441"/>
<path d="M86.5564 208.425L86.501 274.546L151.801 438.436L151.801 372.224L86.5564 208.425Z" fill="#F3F5F6"/>
<path d="M82.2707 277.71L85.9707 275.78L85.0507 274.01L84.5107 274.291L82.3239 275.432L81.3507 275.94L82.2707 277.71ZM42.7307 182.71L80.8807 277.19L82.7307 276.44L82.3239 275.432L45.5714 184.413L44.5807 181.96L42.7307 182.71ZM86.5107 274.89L86.5107 203.31L84.5107 203.31L84.5107 203.934L84.5107 274.291L84.5107 274.89L86.5107 274.89ZM85.9607 202.42L44.1107 181.44L43.2107 183.23L45.5714 184.413L84.5107 203.934L85.0607 204.21L85.9607 202.42ZM81.8107 276.82L80.8807 277.19L81.2907 278.21L82.2707 277.7L81.8107 276.82ZM85.5107 274.89L85.9707 275.78L86.5107 275.5L86.5107 274.89L85.5107 274.89ZM43.6607 182.34L44.1107 181.45L41.7407 180.26L42.7307 182.71L43.6607 182.34ZM85.5107 203.32L86.5107 203.32L86.5107 202.7L85.9607 202.42L85.5107 203.32Z" fill="#EE7441"/>
<path d="M82.3239 275.432L84.5107 274.291L84.5107 203.934L45.5714 184.413L82.3239 275.432Z" fill="#F3F5F6"/>
<path d="M44.9276 310.056L44.4033 295.896L42.4047 295.97L42.929 310.13L44.9276 310.056Z" fill="#EE7441"/>
<path d="M44.4004 181.9L44.4004 168.14L42.4004 168.14L42.4004 181.9L44.4004 181.9Z" fill="#EE7441"/>
<path d="M112.729 478.007L112.205 463.847L110.206 463.921L110.731 478.081L112.729 478.007Z" fill="#EE7441"/>
<path d="M43.1703 676.74L1.32031 656L2.21029 654.21L44.0603 674.95L43.1703 676.74ZM0.760311 655.1L0.760314 583.52L2.76031 583.52L2.76031 655.1L0.760311 655.1ZM1.32031 582.63L43.1703 561.65L44.0703 563.44L2.22031 584.42L1.32031 582.63ZM1.76031 655.1L1.32031 656L0.760311 655.72L0.760311 655.1L1.76031 655.1ZM1.76031 583.52L0.760314 583.52L0.760314 582.9L1.3103 582.62L1.76031 583.52Z" fill="#EE7441"/>
<path d="M111.946 730.565L44.625 561.691L42.7672 562.432L110.088 731.306L111.946 730.565Z" fill="#EE7441"/>
<path d="M70.9399 752.119L2.68066 582.794L0.825664 583.542L69.0849 752.867L70.9399 752.119Z" fill="#EE7441"/>
<path d="M69.8756 812.17L2.69531 654.754L0.855912 655.539L68.0362 812.955L69.8756 812.17Z" fill="#EE7441"/>
<path d="M84.9109 527.87L43.1609 549.47L44.0809 551.25L85.8309 529.65L84.9109 527.87ZM153.581 696.89L86.3009 528.39L84.4409 529.13L151.721 697.63L153.581 696.89ZM111.261 719.54L153.101 698.15L152.191 696.37L110.351 717.76L111.261 719.54ZM42.6909 550.73L109.881 719.03L111.741 718.29L44.5509 549.99L42.6909 550.73ZM85.3709 528.76L86.3009 528.39L85.8909 527.37L84.9109 527.88L85.3709 528.76ZM152.651 697.26L153.111 698.15L153.921 697.74L153.581 696.89L152.651 697.26ZM110.811 718.65L109.881 719.02L110.291 720.04L111.271 719.54L110.811 718.65ZM43.6209 550.35L43.1609 549.46L42.3509 549.88L42.6909 550.72L43.6209 550.35Z" fill="#EE7441"/>
<path d="M86.5008 528.59L86.501 528.396L86.5564 462.274L86.5608 457.07L84.5608 457.07L84.5008 528.59L86.5008 528.59ZM153.731 697.13L151.801 692.286L86.501 528.396L86.4308 528.22L84.5708 528.96L151.871 697.87L153.731 697.13ZM151.801 625.88L151.801 626.074L151.801 692.286L151.801 697.5L153.801 697.5L153.801 625.88L151.801 625.88ZM84.6308 457.44L86.5564 462.274L151.801 626.074L151.871 626.25L153.731 625.51L86.4908 456.7L84.6308 457.44ZM85.5008 528.59L84.5008 528.59L84.5008 528.78L84.5708 528.96L85.5008 528.59ZM152.801 697.5L151.871 697.87L153.801 697.5L152.801 697.5ZM152.801 625.88L153.801 625.88L153.801 625.69L153.731 625.51L152.801 625.88ZM85.5608 457.07L86.4908 456.7L84.5608 457.07L85.5608 457.07Z" fill="#EE7441"/>
<path d="M86.5564 462.274L86.501 528.396L151.801 692.286L151.801 626.074L86.5564 462.274Z" fill="#F3F5F6"/>
<path d="M82.2707 531.56L85.9707 529.63L85.0507 527.86L84.5107 528.142L82.3239 529.282L81.3507 529.79L82.2707 531.56ZM42.7307 436.56L80.8807 531.04L82.7307 530.29L82.3239 529.282L45.5765 438.276L44.5807 435.81L42.7307 436.56ZM86.5107 528.75L86.5107 457.17L84.5107 457.17L84.5107 457.794L84.5107 528.142L84.5107 528.75L86.5107 528.75ZM85.9607 456.28L44.1107 435.3L43.2107 437.09L45.5765 438.276L84.5107 457.794L85.0607 458.07L85.9607 456.28ZM81.8107 530.67L80.8807 531.04L81.2907 532.06L82.2707 531.55L81.8107 530.67ZM85.5107 528.75L85.9707 529.64L86.5107 529.36L86.5107 528.75L85.5107 528.75ZM43.6607 436.19L44.1107 435.3L41.7407 434.11L42.7307 436.56L43.6607 436.19ZM85.5107 457.17L86.5107 457.17L86.5107 456.55L85.9607 456.27L85.5107 457.17Z" fill="#EE7441"/>
<path d="M82.3239 529.282L84.5107 528.142L84.5107 457.794L45.5765 438.276L82.3239 529.282Z" fill="#F3F5F6"/>
<path d="M44.9169 563.903L44.3926 549.743L42.394 549.817L42.9183 563.977L44.9169 563.903Z" fill="#EE7441"/>
<path d="M44.4014 435.75L44.4014 421.99L42.4014 421.99L42.4014 435.75L44.4014 435.75Z" fill="#EE7441"/>
<path d="M112.72 731.853L112.195 717.693L110.197 717.767L110.721 731.927L112.72 731.853Z" fill="#EE7441"/>
<path d="M110.911 844.87L69.0608 824.13L69.9508 822.34L111.801 843.08L110.911 844.87ZM68.5008 823.23L68.5008 751.65L70.5008 751.65L70.5008 823.23L68.5008 823.23ZM69.0508 750.76L110.901 729.78L111.801 731.57L69.9508 752.55L69.0508 750.76ZM69.5008 823.23L69.0608 824.13L68.5008 823.85L68.5008 823.23L69.5008 823.23ZM69.5008 751.66L68.5008 751.66L68.5008 751.04L69.0508 750.76L69.5008 751.66Z" fill="#EE7441"/>
<path d="M1.47015 656.44L3.80053 657.565L42.7059 676.354L43.0501 676.52L43.9202 674.72L2.34015 654.64L1.47015 656.44ZM70.4001 822.65L70.2578 822.297L3.80053 657.565L2.83014 655.16L0.980163 655.91L68.5501 823.4L70.4001 822.65ZM111.19 842.56L108.846 841.399L70.2578 822.297L69.9202 822.13L69.0301 823.92L110.3 844.35L111.19 842.56ZM42.5601 675.99L42.7059 676.354L108.846 841.399L109.82 843.83L111.68 843.09L44.4202 675.25L42.5601 675.99ZM1.90015 655.54L2.33014 654.64L0.000152588 653.51L0.970154 655.91L1.90015 655.54ZM69.4701 823.02L68.5402 823.39L68.6801 823.74L69.0201 823.91L69.4701 823.02ZM110.75 843.46L110.31 844.36L112.66 845.52L111.69 843.09L110.75 843.46ZM43.4901 675.61L44.4202 675.24L44.2802 674.88L43.9301 674.71L43.4901 675.61Z" fill="#EE7441"/>
<path d="M42.7059 676.354L3.80053 657.565L70.2578 822.297L108.846 841.399L42.7059 676.354Z" fill="#F3F5F6"/>
<path d="M82.2707 785.41L85.9707 783.48L85.0507 781.71L84.5107 781.992L82.3238 783.132L81.3507 783.64L82.2707 785.41ZM42.7307 690.41L80.8807 784.89L82.7307 784.14L82.3238 783.132L45.5715 692.123L44.5807 689.67L42.7307 690.41ZM86.5107 782.6L86.5107 711.02L84.5107 711.02L84.5107 711.644L84.5107 781.992L84.5107 782.6L86.5107 782.6ZM85.9607 710.13L44.1107 689.15L43.2107 690.94L45.5715 692.123L84.5107 711.644L85.0607 711.92L85.9607 710.13ZM81.8107 784.52L80.8807 784.89L81.2907 785.91L82.2707 785.4L81.8107 784.52ZM85.5107 782.6L85.9707 783.49L86.5107 783.21L86.5107 782.6L85.5107 782.6ZM43.6607 690.04L44.1107 689.15L41.7407 687.96L42.7307 690.41L43.6607 690.04ZM85.5107 711.02L86.5107 711.02L86.5107 710.4L85.9607 710.12L85.5107 711.02Z" fill="#EE7441"/>
<path d="M82.3238 783.132L84.5107 781.992L84.5107 711.644L45.5715 692.123L82.3238 783.132Z" fill="#F3F5F6"/>
<path d="M44.4004 689.6L44.4004 675.84L42.4004 675.84L42.4004 689.6L44.4004 689.6Z" fill="#EE7441"/>
</svg>
