<svg width="154" height="586" viewBox="0 0 154 586" fill="none" xmlns="http://www.w3.org/2000/svg">
<path fill-rule="evenodd" clip-rule="evenodd" d="M84.5007 -83.6279L42.4828 -61.8885L42.4142 -61.886L42.4154 -61.8536L42.3504 -61.8198L42.4234 -61.6396L42.8583 -49.8934L1.32031 -29.0698L1.61186 -28.49L1.60635 -28.4877L1.3103 -29.0798L0.760309 -28.7998L0.760306 42.1685L0.000143985 41.7998L0.760306 43.6806L0.760306 44.0202L0.932319 44.1062L0.970145 44.1998L0.999381 44.1882L1.00077 44.1914L0.980155 44.1998L57.4639 184.21L42.4694 191.968L42.4042 191.97L42.4054 192.001L42.3504 192.03L42.4121 192.182L42.8482 203.961L1.3203 224.78L1.61522 225.366L1.60969 225.369L1.31029 224.77L0.760298 225.05L0.760295 296.029L0.000132889 295.66L0.760295 297.541L0.760295 297.87L0.92686 297.953L0.970134 298.06L1.00537 298.046L1.00676 298.049L0.980144 298.06L57.4638 438.07L43.1645 445.468L43.1604 445.46L42.4778 445.814L42.3937 445.817L42.3952 445.857L42.3504 445.88L42.4006 446.004L42.838 457.816L1.32028 478.63L1.6184 479.223L1.61286 479.225L1.31028 478.62L0.760287 478.9L0.760284 549.878L0.000121793 549.51L0.760284 551.391L0.760284 551.72L0.927078 551.803L0.970123 551.91L1.00717 551.895L1.00854 551.898L0.980133 551.91L68.5003 719.276L68.5003 719.85L69.0603 720.13L110.91 740.87L110.996 740.698L112.66 741.52L111.737 739.207L111.8 739.08L111.646 739.004L86.5102 676.281L86.5102 640.249L111.117 627.913L112.719 627.853L112.244 615.037L153.1 594.15L152.86 593.68L152.867 593.679L153.11 594.15L153.92 593.74L153.8 593.44L153.8 521.69L153.73 521.51L97.6886 380.814L111.151 374.065L112.729 374.007L112.254 361.182L153.1 340.3L152.86 339.83L152.867 339.829L153.11 340.3L153.92 339.89L153.8 339.589L153.8 267.84L153.73 267.66L97.6887 126.964L111.143 120.22L112.74 120.161L112.264 107.327L153.1 86.4501L152.86 85.9802L152.872 85.978L153.11 86.4402L153.92 86.0302L153.8 85.7299L153.8 13.99L153.73 13.81L86.4903 -155L84.5603 -154.63L84.5007 -83.6279ZM69.0603 720.13L69.1372 719.973L69.1383 719.973L69.0603 720.13ZM109.716 626.374L86.5102 638.007L86.5102 606.4L85.9602 606.12L85.9562 606.128L51.4688 588.839L44.4201 571.25L43.7857 571.502L43.7919 571.49L44.4201 571.24L44.2801 570.88L43.9301 570.71L43.861 570.851L43.8575 570.849L43.9201 570.72L38.7259 568.211L3.14749 479.955L43.0047 459.974L43.3764 459.96L109.716 626.374ZM36.0482 566.918L2.76029 484.344L2.76028 550.482L31.2243 564.589L36.0482 566.918ZM110.279 616.011L109.884 615.029L109.88 615.03L44.6066 451.53L44.8562 458.272L110.539 623.037L110.279 616.011ZM96.9444 378.946L86.5102 352.75L86.5102 352.55L85.9602 352.27L85.9562 352.278L51.4738 334.992L44.4201 317.39L44.2801 317.03L43.9301 316.86L43.8612 317.001L43.8577 316.999L43.9201 316.87L38.7289 314.363L3.14932 226.104L42.9966 206.128L43.3654 206.114L109.712 372.545L96.9444 378.946ZM44.8868 446.833L58.2168 439.936L68.5403 465.526L68.5401 465.54L68.5403 466L69.1003 466.28L108.708 485.909L151.382 592.783L111.329 613.26L44.8868 446.833ZM69.1003 466.28L69.1691 466.139L69.1701 466.139L69.1003 466.28ZM110.29 362.19L109.88 361.17L44.6176 197.697L44.8689 204.485L110.552 369.251L110.29 362.19ZM96.9446 125.096L86.5102 98.9002L86.5102 98.6997L85.9602 98.4198L51.4687 81.1287L44.4202 63.5398L44.2801 63.1798L43.9301 63.0098L43.8648 63.1433L43.8574 63.1396L43.9202 63.0098L38.7267 60.5018L3.15145 -27.7466L43.0106 -47.7286L43.3503 -47.7411L109.701 118.701L96.9446 125.096ZM85.9602 98.4198L85.6661 99.0081L85.6642 99.0085L85.9602 98.4198ZM110.3 108.335L110.29 108.34L109.88 107.32L44.6289 -56.1242L44.8816 -49.3008L110.564 115.465L110.3 108.335ZM31.2018 56.8678L2.76031 42.7728L2.76031 -23.3676L36.049 59.2086L31.2018 56.8678ZM36.0512 313.07L2.7603 230.488L2.7603 296.632L31.2607 310.757L36.0512 313.07Z" fill="#F3F5F6"/>
<path d="M86.5102 98.9002L96.9446 125.096L109.701 118.701L43.3503 -47.7411L43.0106 -47.7286L3.15145 -27.7466L38.7267 60.5018L43.9202 63.0098L43.8574 63.1396L43.8648 63.1433L43.9301 63.0098L44.2801 63.1798L44.4202 63.5398L51.4687 81.1287L85.9602 98.4198L86.5102 98.6997L86.5102 98.9002Z" fill="#F3F5F6"/>
<path d="M110.29 108.34L110.3 108.335L110.564 115.465L44.8816 -49.3008L44.6289 -56.1242L109.88 107.32L110.29 108.34Z" fill="#F3F5F6"/>
<path d="M2.76031 42.7728L31.2018 56.8678L36.049 59.2086L2.76031 -23.3676L2.76031 42.7728Z" fill="#F3F5F6"/>
<path d="M86.5102 352.75L96.9444 378.946L109.712 372.545L43.3654 206.114L42.9966 206.128L3.14932 226.104L38.7289 314.363L43.9201 316.87L43.8577 316.999L43.8612 317.001L43.9301 316.86L44.2801 317.03L44.4201 317.39L51.4738 334.992L85.9562 352.278L85.9602 352.27L86.5102 352.55L86.5102 352.75Z" fill="#F3F5F6"/>
<path d="M109.88 361.17L110.29 362.19L110.552 369.251L44.8689 204.485L44.6176 197.697L109.88 361.17Z" fill="#F3F5F6"/>
<path d="M2.7603 230.488L36.0512 313.07L31.2607 310.757L2.7603 296.632L2.7603 230.488Z" fill="#F3F5F6"/>
<path d="M86.5102 638.007L109.716 626.374L43.3764 459.96L43.0047 459.974L3.14749 479.955L38.7259 568.211L43.9201 570.72L43.8575 570.849L43.861 570.851L43.9301 570.71L44.2801 570.88L44.4201 571.24L43.7919 571.49L43.7857 571.502L44.4201 571.25L51.4688 588.839L85.9562 606.128L85.9602 606.12L86.5102 606.4L86.5102 638.007Z" fill="#F3F5F6"/>
<path d="M58.2168 439.936L44.8868 446.833L111.329 613.26L151.382 592.783L108.708 485.909L69.1003 466.28L68.5403 466L68.5401 465.54L68.5403 465.526L58.2168 439.936Z" fill="#F3F5F6"/>
<path d="M109.884 615.029L110.279 616.011L110.539 623.037L44.8562 458.272L44.6066 451.53L109.88 615.03L109.884 615.029Z" fill="#F3F5F6"/>
<path d="M2.76029 484.344L36.0482 566.918L31.2243 564.589L2.76028 550.482L2.76029 484.344Z" fill="#F3F5F6"/>
<path d="M43.1703 65.0302L1.32031 44.2902L2.21029 42.5002L44.0603 63.2402L43.1703 65.0302ZM0.760311 43.4002L0.760314 -28.1798L2.76031 -28.1798L2.76031 43.4002L0.760311 43.4002ZM1.32031 -29.0698L43.1703 -50.0498L44.0703 -48.2598L2.22031 -27.2798L1.32031 -29.0698ZM1.76031 43.4002L1.32031 44.3002L0.760311 44.0202L0.760311 43.4002L1.76031 43.4002ZM1.76031 -28.1798L0.760314 -28.1798L0.760314 -28.7998L1.3103 -29.0798L1.76031 -28.1798Z" fill="#EE7441"/>
<path d="M110.95 233.17L69.1003 212.43L69.9903 210.64L111.84 231.38L110.95 233.17ZM68.5403 211.53L68.5403 139.95L70.5403 139.95L70.5403 211.53L68.5403 211.53ZM69.0903 139.06L110.94 118.08L111.84 119.87L69.9903 140.85L69.0903 139.06ZM69.5403 211.53L69.1003 212.43L68.5403 212.15L68.5403 211.53L69.5403 211.53ZM69.5403 139.95L68.5403 139.95L68.5403 139.33L69.0903 139.05L69.5403 139.95Z" fill="#EE7441"/>
<path d="M111.926 118.879L44.605 -49.9951L42.7472 -49.2545L110.068 119.619L111.926 118.879Z" fill="#EE7441"/>
<path d="M70.9374 140.404L2.67822 -28.9199L0.823223 -28.1721L69.0824 141.152L70.9374 140.404Z" fill="#EE7441"/>
<path d="M69.8805 200.494L2.7002 43.0781L0.860795 43.8631L68.0411 201.279L69.8805 200.494Z" fill="#EE7441"/>
<path d="M1.47015 44.7298L3.80054 45.8552L42.7059 64.6436L43.0501 64.8098L43.9202 63.0098L2.34015 42.9298L1.47015 44.7298ZM70.4001 210.94L70.2578 210.587L3.80054 45.8552L2.83014 43.4498L0.980163 44.1998L68.5501 211.69L70.4001 210.94ZM111.19 230.85L108.846 229.689L70.2578 210.587L69.9202 210.42L69.0301 212.21L110.3 232.64L111.19 230.85ZM42.5601 64.2798L42.7059 64.6436L108.846 229.689L109.82 232.12L111.68 231.38L44.4202 63.5398L42.5601 64.2798ZM1.90015 43.8298L2.33014 42.9298L0.000152588 41.7998L0.970154 44.1998L1.90015 43.8298ZM69.4701 211.32L68.5402 211.69L68.6801 212.04L69.0201 212.21L69.4701 211.32ZM110.75 231.75L110.31 232.65L112.66 233.81L111.69 231.38L110.75 231.75ZM43.4901 63.9098L44.4202 63.5398L44.2802 63.1798L43.9301 63.0098L43.4901 63.9098Z" fill="#EE7441"/>
<path d="M42.7059 64.6436L3.80054 45.8552L70.2578 210.587L108.846 229.689L42.7059 64.6436Z" fill="#F3F5F6"/>
<path d="M84.9104 -83.8398L43.1604 -62.2398L44.0804 -60.4598L44.8786 -60.8728L84.8505 -81.5529L85.8304 -82.0598L84.9104 -83.8398ZM153.58 85.1802L86.3004 -83.3198L84.4404 -82.5798L84.8505 -81.5529L151.386 85.0816L151.72 85.9202L153.58 85.1802ZM111.26 107.84L153.1 86.4501L152.19 84.6702L151.386 85.0816L111.332 105.558L110.35 106.06L111.26 107.84ZM42.6904 -60.9798L109.88 107.32L111.74 106.58L111.332 105.558L44.8786 -60.8728L44.5404 -61.7198L42.6904 -60.9798ZM85.3704 -82.9498L86.3004 -83.3198L85.8904 -84.3398L84.9104 -83.8298L85.3704 -82.9498ZM152.65 85.5502L153.11 86.4402L153.92 86.0302L153.58 85.1802L152.65 85.5502ZM110.81 106.95L109.88 107.32L110.29 108.34L111.27 107.84L110.81 106.95ZM43.6204 -61.3498L43.1604 -62.2398L42.3504 -61.8198L42.6904 -60.9798L43.6204 -61.3498Z" fill="#EE7441"/>
<path d="M84.8505 -81.5529L44.8786 -60.8728L111.332 105.558L151.386 85.0816L84.8505 -81.5529Z" fill="#F3F5F6"/>
<path d="M86.5003 -83.11L86.5005 -83.3039L86.5559 -149.426L86.5603 -154.63L84.5603 -154.63L84.5003 -83.11L86.5003 -83.11ZM153.73 85.43L151.8 80.586L86.5005 -83.3039L86.4303 -83.48L84.5703 -82.74L151.87 86.17L153.73 85.43ZM151.8 14.18L151.8 14.3742L151.8 80.586L151.8 85.8L153.8 85.8L153.8 14.18L151.8 14.18ZM84.6303 -154.26L86.5559 -149.426L151.8 14.3742L151.87 14.55L153.73 13.81L86.4903 -155L84.6303 -154.26ZM85.5003 -83.11L84.5003 -83.11L84.5003 -82.92L84.5703 -82.74L85.5003 -83.11ZM152.8 85.8L151.87 86.17L153.8 85.8L152.8 85.8ZM152.8 14.18L153.8 14.18L153.8 13.99L153.73 13.81L152.8 14.18ZM85.5603 -154.63L86.4903 -155L84.5603 -154.63L85.5603 -154.63Z" fill="#EE7441"/>
<path d="M86.5559 -149.426L86.5005 -83.3039L151.8 80.586L151.8 14.3742L86.5559 -149.426Z" fill="#F3F5F6"/>
<path d="M112.74 120.16L112.215 106L110.217 106.074L110.741 120.234L112.74 120.16Z" fill="#EE7441"/>
<path d="M43.1703 318.89L1.32031 298.15L2.21029 296.36L44.0603 317.1L43.1703 318.89ZM0.760311 297.25L0.760314 225.67L2.76031 225.67L2.76031 297.25L0.760311 297.25ZM1.32031 224.78L43.1703 203.8L44.0703 205.59L2.22031 226.57L1.32031 224.78ZM1.76031 297.25L1.32031 298.15L0.760311 297.87L0.760311 297.25L1.76031 297.25ZM1.76031 225.67L0.760314 225.67L0.760314 225.05L1.3103 224.77L1.76031 225.67Z" fill="#EE7441"/>
<path d="M110.95 487.02L69.1003 466.28L69.9903 464.49L111.84 485.23L110.95 487.02ZM68.5403 465.38L68.5403 393.8L70.5403 393.8L70.5403 465.38L68.5403 465.38ZM69.0903 392.91L110.94 371.93L111.84 373.72L69.9903 394.7L69.0903 392.91ZM69.5403 465.38L69.1003 466.28L68.5403 466L68.5403 465.38L69.5403 465.38ZM69.5403 393.8L68.5403 393.8L68.5403 393.18L69.0903 392.9L69.5403 393.8Z" fill="#EE7441"/>
<path d="M111.936 372.722L44.615 203.848L42.7572 204.588L110.078 373.462L111.936 372.722Z" fill="#EE7441"/>
<path d="M70.9384 394.261L2.6792 224.937L0.824199 225.684L69.0834 395.009L70.9384 394.261Z" fill="#EE7441"/>
<path d="M69.8778 454.332L2.69751 296.916L0.85811 297.701L68.0384 455.117L69.8778 454.332Z" fill="#EE7441"/>
<path d="M1.47015 298.59L3.80054 299.716L42.7109 318.506L43.0501 318.67L43.9202 316.87L2.34015 296.79L1.47015 298.59ZM70.4001 464.8L70.2578 464.447L3.80054 299.716L2.83014 297.31L0.980163 298.06L68.5501 465.55L70.4001 464.8ZM111.19 484.71L108.851 483.552L70.2578 464.447L69.9202 464.28L69.0301 466.07L110.3 486.5L111.19 484.71ZM42.5601 318.13L42.7109 318.506L108.851 483.552L109.82 485.97L111.68 485.23L44.4202 317.39L42.5601 318.13ZM1.90015 297.69L2.33014 296.79L0.000152588 295.66L0.970154 298.06L1.90015 297.69ZM69.4701 465.17L68.5402 465.54L68.6801 465.89L69.0201 466.06L69.4701 465.17ZM110.75 485.6L110.31 486.5L112.66 487.66L111.69 485.23L110.75 485.6ZM43.4901 317.76L44.4202 317.39L44.2802 317.03L43.9301 316.86L43.4901 317.76Z" fill="#EE7441"/>
<path d="M42.7109 318.506L3.80054 299.716L70.2578 464.447L108.851 483.552L42.7109 318.506Z" fill="#F3F5F6"/>
<path d="M84.9104 170.01L43.1604 191.61L44.0804 193.39L44.8868 192.973L84.8472 172.298L85.8304 171.79L84.9104 170.01ZM153.58 339.04L86.3004 170.54L84.4404 171.28L84.8472 172.298L151.382 338.933L151.72 339.78L153.58 339.04ZM111.26 361.69L153.1 340.3L152.19 338.52L151.382 338.933L111.332 359.408L110.35 359.91L111.26 361.69ZM42.6904 192.87L109.88 361.17L111.74 360.43L111.332 359.408L44.8868 192.973L44.5504 192.13L42.6904 192.87ZM85.3704 170.9L86.3004 170.53L85.8904 169.51L84.9104 170.02L85.3704 170.9ZM152.65 339.41L153.11 340.3L153.92 339.89L153.58 339.04L152.65 339.41ZM110.81 360.8L109.88 361.17L110.29 362.19L111.27 361.69L110.81 360.8ZM43.6204 192.5L43.1604 191.61L42.3504 192.03L42.6904 192.87L43.6204 192.5Z" fill="#EE7441"/>
<path d="M84.8472 172.298L44.8868 192.973L111.332 359.408L151.382 338.933L84.8472 172.298Z" fill="#F3F5F6"/>
<path d="M86.5003 170.74L86.5005 170.546L86.5559 104.424L86.5603 99.2196L84.5603 99.2196L84.5003 170.74L86.5003 170.74ZM153.73 339.28L151.8 334.436L86.5005 170.546L86.4303 170.37L84.5703 171.11L151.87 340.02L153.73 339.28ZM151.8 268.03L151.8 268.224L151.8 334.436L151.8 339.65L153.8 339.65L153.8 268.03L151.8 268.03ZM84.6303 99.5896L86.5559 104.424L151.8 268.224L151.87 268.4L153.73 267.66L86.4903 98.8496L84.6303 99.5896ZM85.5003 170.74L84.5003 170.74L84.5003 170.93L84.5703 171.11L85.5003 170.74ZM152.8 339.65L151.87 340.02L153.8 339.65L152.8 339.65ZM152.8 268.03L153.8 268.03L153.8 267.84L153.73 267.66L152.8 268.03ZM85.5603 99.2196L86.4903 98.8496L84.5603 99.2196L85.5603 99.2196Z" fill="#EE7441"/>
<path d="M86.5559 104.424L86.5005 170.546L151.8 334.436L151.8 268.224L86.5559 104.424Z" fill="#F3F5F6"/>
<path d="M82.2702 173.71L85.9702 171.78L85.0502 170.01L84.5102 170.291L82.3234 171.432L81.3502 171.94L82.2702 173.71ZM42.7303 78.7098L80.8802 173.19L82.7303 172.44L82.3234 171.432L45.5709 80.4132L44.5802 77.9598L42.7303 78.7098ZM86.5102 170.89L86.5103 99.3098L84.5103 99.3098L84.5103 99.934L84.5102 170.291L84.5102 170.89L86.5102 170.89ZM85.9602 98.4198L44.1102 77.4398L43.2102 79.2298L45.5709 80.4132L84.5103 99.934L85.0602 100.21L85.9602 98.4198ZM81.8102 172.82L80.8802 173.19L81.2902 174.21L82.2702 173.7L81.8102 172.82ZM85.5102 170.89L85.9702 171.78L86.5102 171.5L86.5102 170.89L85.5102 170.89ZM43.6602 78.3398L44.1102 77.4498L41.7402 76.2598L42.7303 78.7098L43.6602 78.3398ZM85.5103 99.3198L86.5103 99.3198L86.5103 98.6998L85.9602 98.4198L85.5103 99.3198Z" fill="#EE7441"/>
<path d="M82.3234 171.432L84.5102 170.291L84.5103 99.934L45.5709 80.4132L82.3234 171.432Z" fill="#F3F5F6"/>
<path d="M44.9271 206.056L44.4028 191.896L42.4042 191.97L42.9285 206.13L44.9271 206.056Z" fill="#EE7441"/>
<path d="M44.4004 77.8997L44.4004 64.1396L42.4004 64.1396L42.4004 77.8997L44.4004 77.8997Z" fill="#EE7441"/>
<path d="M112.729 374.007L112.205 359.847L110.206 359.921L110.73 374.081L112.729 374.007Z" fill="#EE7441"/>
<path d="M43.1703 572.739L1.32031 551.999L2.21029 550.209L44.0603 570.949L43.1703 572.739ZM0.760311 551.099L0.760314 479.519L2.76031 479.519L2.76031 551.099L0.760311 551.099ZM1.32031 478.629L43.1703 457.649L44.0703 459.439L2.22031 480.419L1.32031 478.629ZM1.76031 551.099L1.32031 551.999L0.760311 551.719L0.760311 551.099L1.76031 551.099ZM1.76031 479.519L0.760314 479.519L0.760314 478.899L1.3103 478.619L1.76031 479.519Z" fill="#EE7441"/>
<path d="M111.945 626.564L44.6248 457.69L42.767 458.431L110.087 627.305L111.945 626.564Z" fill="#EE7441"/>
<path d="M70.9389 648.118L2.67969 478.794L0.824687 479.542L69.0839 648.866L70.9389 648.118Z" fill="#EE7441"/>
<path d="M69.8749 708.17L2.69458 550.754L0.85518 551.539L68.0355 708.955L69.8749 708.17Z" fill="#EE7441"/>
<path d="M84.9104 423.87L43.1604 445.47L44.0804 447.25L85.8304 425.65L84.9104 423.87ZM153.58 592.89L86.3004 424.39L84.4404 425.13L151.72 593.63L153.58 592.89ZM111.26 615.54L153.1 594.15L152.19 592.37L110.35 613.76L111.26 615.54ZM42.6904 446.73L109.88 615.03L111.74 614.29L44.5504 445.99L42.6904 446.73ZM85.3704 424.76L86.3004 424.39L85.8904 423.37L84.9104 423.88L85.3704 424.76ZM152.65 593.26L153.11 594.15L153.92 593.74L153.58 592.89L152.65 593.26ZM110.81 614.65L109.88 615.02L110.29 616.04L111.27 615.54L110.81 614.65ZM43.6204 446.35L43.1604 445.46L42.3504 445.88L42.6904 446.72L43.6204 446.35Z" fill="#EE7441"/>
<path d="M86.5003 424.589L86.5005 424.395L86.5559 358.274L86.5603 353.069L84.5603 353.069L84.5003 424.589L86.5003 424.589ZM153.73 593.129L151.8 588.285L86.5005 424.395L86.4303 424.219L84.5703 424.959L151.87 593.869L153.73 593.129ZM151.8 521.879L151.8 522.073L151.8 588.285L151.8 593.499L153.8 593.499L153.8 521.879L151.8 521.879ZM84.6303 353.439L86.5559 358.274L151.8 522.073L151.87 522.249L153.73 521.509L86.4903 352.699L84.6303 353.439ZM85.5003 424.589L84.5003 424.589L84.5003 424.779L84.5703 424.959L85.5003 424.589ZM152.8 593.499L151.87 593.869L153.8 593.499L152.8 593.499ZM152.8 521.879L153.8 521.879L153.8 521.689L153.73 521.509L152.8 521.879ZM85.5603 353.069L86.4903 352.699L84.5603 353.069L85.5603 353.069Z" fill="#EE7441"/>
<path d="M86.5559 358.274L86.5005 424.395L151.8 588.285L151.8 522.073L86.5559 358.274Z" fill="#F3F5F6"/>
<path d="M82.2702 427.559L85.9702 425.629L85.0502 423.859L84.5102 424.141L82.3234 425.282L81.3502 425.789L82.2702 427.559ZM42.7303 332.559L80.8802 427.039L82.7303 426.289L82.3234 425.282L45.576 334.275L44.5802 331.809L42.7303 332.559ZM86.5102 424.749L86.5103 353.169L84.5103 353.169L84.5103 353.794L84.5102 424.141L84.5102 424.749L86.5102 424.749ZM85.9602 352.279L44.1102 331.299L43.2102 333.089L45.576 334.275L84.5103 353.794L85.0602 354.069L85.9602 352.279ZM81.8102 426.669L80.8802 427.039L81.2902 428.059L82.2702 427.549L81.8102 426.669ZM85.5102 424.749L85.9702 425.639L86.5102 425.359L86.5102 424.749L85.5102 424.749ZM43.6602 332.189L44.1102 331.299L41.7402 330.109L42.7303 332.559L43.6602 332.189ZM85.5103 353.169L86.5103 353.169L86.5103 352.549L85.9602 352.269L85.5103 353.169Z" fill="#EE7441"/>
<path d="M82.3234 425.282L84.5102 424.141L84.5103 353.794L45.576 334.275L82.3234 425.282Z" fill="#F3F5F6"/>
<path d="M44.9164 459.902L44.3921 445.742L42.3935 445.816L42.9178 459.976L44.9164 459.902Z" fill="#EE7441"/>
<path d="M44.4004 331.749L44.4004 317.989L42.4004 317.989L42.4004 331.749L44.4004 331.749Z" fill="#EE7441"/>
<path d="M1.47015 552.44L3.80053 553.565L42.7059 572.354L43.0501 572.52L43.9202 570.72L2.34015 550.64L1.47015 552.44ZM70.4001 718.65L70.2578 718.297L3.80053 553.565L2.83014 551.16L0.980163 551.91L68.5501 719.4L70.4001 718.65ZM111.19 738.56L108.846 737.399L70.2578 718.297L69.9202 718.13L69.0301 719.92L110.3 740.35L111.19 738.56ZM42.5601 571.99L42.7059 572.354L108.846 737.399L109.82 739.83L111.68 739.09L44.4202 571.25L42.5601 571.99ZM1.90015 551.54L2.33014 550.64L0.000152588 549.51L0.970154 551.91L1.90015 551.54ZM69.4701 719.02L68.5402 719.39L68.6801 719.74L69.0201 719.91L69.4701 719.02ZM110.75 739.46L110.31 740.36L112.66 741.52L111.69 739.09L110.75 739.46ZM43.4901 571.61L44.4202 571.24L44.2802 570.88L43.9301 570.71L43.4901 571.61Z" fill="#EE7441"/>
<path d="M42.7059 572.354L3.80053 553.565L70.2578 718.297L108.846 737.399L42.7059 572.354Z" fill="#F3F5F6"/>
<path d="M82.2702 681.41L85.9702 679.48L85.0502 677.71L84.5102 677.992L82.3234 679.132L81.3502 679.64L82.2702 681.41ZM42.7303 586.41L80.8802 680.89L82.7303 680.14L82.3234 679.132L45.571 588.123L44.5802 585.67L42.7303 586.41ZM86.5102 678.6L86.5103 607.02L84.5103 607.02L84.5103 607.644L84.5102 677.992L84.5102 678.6L86.5102 678.6ZM85.9602 606.13L44.1102 585.15L43.2102 586.94L45.571 588.123L84.5103 607.644L85.0602 607.92L85.9602 606.13ZM81.8102 680.52L80.8802 680.89L81.2902 681.91L82.2702 681.4L81.8102 680.52ZM85.5102 678.6L85.9702 679.49L86.5102 679.21L86.5102 678.6L85.5102 678.6ZM43.6602 586.04L44.1102 585.15L41.7402 583.96L42.7303 586.41L43.6602 586.04ZM85.5103 607.02L86.5103 607.02L86.5103 606.4L85.9602 606.12L85.5103 607.02Z" fill="#EE7441"/>
<path d="M82.3234 679.132L84.5102 677.992L84.5103 607.644L45.571 588.123L82.3234 679.132Z" fill="#F3F5F6"/>
<path d="M44.4004 585.6L44.4004 571.84L42.4004 571.84L42.4004 585.6L44.4004 585.6Z" fill="#EE7441"/>
</svg>
